<?xml version="1.0" encoding="UTF-8"?>
<svg id="Layer_1" xmlns="http://www.w3.org/2000/svg" version="1.1" viewBox="0 0 279.7 158.7">
  <!-- Generator: Adobe Illustrator 29.5.1, SVG Export Plug-In . SVG Version: 2.1.0 Build 141)  -->
  <path d="M267.9,38.4c-.3.5-.6.3-1,0-2.3-1.3-5.1-3.9-7.4-5.5s-1.4-1.2-1.9-1c-.8.4-.3,4.5-1.9,2.4s-2.5-5.8-4.6-7.6c-3.7-3.2-7.8-6.1-12.8-6.4-15.3-.9-20.8,11.6-20.2,25,.4,8.7,5.1,17.4,14.3,18.8s9.7.3,12.7-2.2,2.1-2.9,3.4-3.6,2.4-.6,2.6-1.6,0-2.8.1-4,.3-1.8.3-2.5c0-1.8-2.7-4.8-3.5-6.5s-.5-1.3.6-1.4c2.5-.3,5.7,0,8.3,0s3.2-.3,4.8-.3,3-.3,2.6.8c-1,2-2.5,3.9-3.6,5.9s-.6,3.3-.8,5.6-.4,2.8-.5,4.1.3,4.2-.4,4.9-.8.4-1.1.6c-.8.6-1.9,2.8-2.7,3.8-3.9,4.8-9.9,7.4-16,7.7-15.8.9-26-9.1-28.8-24-.5-2.4-.6-5-1-7.4s0-.3-.2-.4c0,1-.2,2-.2,2.9-.3,6.8.2,13.8-.1,20.5-.3,6.7-.6,8.1-3.9,9.1s-2.7-.2-2.5,1.8.3,1,.9,1c3.6-.2,7.2-.2,10.8-.4s5.3-1,6.6.4.9,6.5.8,8.8c0,4,.1,7.9.2,11.9,0,1.4.3,2.8-1.4,3s-2.4,0-2.6-1.7c-.3-3.4.7-12.4-1.7-14.9s-4.5-1.3-6-1.3-5.2,0-6.5.4-2.2,2.7-2.3,4.3c-.3,3.9.2,8.1,0,12,.2,1,.3,2.5,1.5,2.8s3.4,0,4.2,0,1.6-.8,1.8-1.6c.4-1.6.3-4.3.3-6s.2-2.6-.2-3.5-2.2-2.3-.7-2.5,4.9,0,5.7.2c1.2.4-.6,1.9-.8,2.8-.3,2.5,0,5.5-.1,8,0,1.1-.5,2.1-.6,3.2-.1,1.6-.1,3.9,0,5.5s.5,2.1.6,3.1,0,2.8,0,4.2c0,3.1.2,4.4-.6,7.5-.1.4-.6,2.4-.9,2.5-.4.2-.5,0-.7-.3-.4-.6-.8-2.4-1-3.2-1-3.6-.5-7.4-.8-11.1s-.6-1.8-1.6-2.2-4-.3-4.8,0-1.2,1.7-1.2,2.7c-.3,4.6,0,9.9.1,14.5,0,2.3-.6,6.3,2.7,6.4,3.2-.2,6.7.3,9.9,0,3.3-.3,4.4-2.6,4.6-5.7.4-5.8-.9-10.1,1.1-15.9s.9-1.9,1.6,0,.7,2.2,1,3.1c1,4.2-.1,9.1.2,13.4.3,4.3.2.8.7.8s3.1-1.5,3.9-1.8c1.4-.6,1.5-.2,2.8,0,2.2.5,4.7-1.5,6.7-1.6s4.6,1.1,5.3,1.7c1.1.8,1,1.5,2.7,1.8,5.6,1.1,6.8-5.8,6.3-9.9-.4-3.5-1.7-3.9-4.8-4.7s-4.6-1.1-7-1.9c-8.9-3.3-12.8-11.3-11.6-20.6,1.5-11.1,11.2-17.8,22.2-15.1s3.1,1.3,4,1.2,1.5-.6,2.2-.5c1,.2.8,2.5,2.7,2s2.1-1.9,3.1.6.7,2,.5,3-1.6.6-1.8,1.2.8,2.1,1,2.8c1.4,3.4,1.8,7.1,1.6,10.8s0,2-.6,2.7-2.9,2.8-3.6,3.4-.8.5-1.2.5-2.3-.2-2.3.4,2.3,1.8,2.7,2.1c6.2,5,7.6,14,5.5,21.4-3.2,11.1-14.9,16.3-25.5,12.1-.9-.4-2-1.2-3-1s-1.2.5-1.8.4c-.8,0-2.2-.9-3.1-1.1s-1.4,0-1.8,0-.6-.7-.9-.8c-.7-.4-2.7-.7-2.7-1.7s1.4-2.5-.7-2.8-1.3,1.6-1.4,2.9-.5,2.3-1.4,2.9-1.6.3-1.8,1.3.2,2.2-.9,2.4-2.9,0-3.6,0c-2.1-.2,0-3.4-1.9-3.7s-1.5-.1-2.1-.1c-4.5-.2-10.8-.4-15.3.1s.4,2.8-2.1,3.7-2.8.7-3.2-.7-1-4.4-1.1-5.7c-.2-2,.8-2.6,1.4-4.2s.1-3.1,3-2.3,1.4.4,1.7.9,0,1.2.6.5.5-1.6.7-2.4c.2-13.8.2-27.6,0-41.4-.4-2.3-.6-4.9-3.6-4.5s-2.2.9-3-.3-.9-3.8,0-4.9,3.8-.4,5.3-.3c2.1,0,1.4-.4,2.4-1.7s.5-.5.7-.6c.4-.3,1.6-.7,1.6-1.3s-1.1-1.7-1.4-2.1c-.5-.8-.9-1.7-1.3-2.6-3.5-8.1-6.1-16.9-9.6-25.1l-.6-.8c-.2.2-.3.4-.4.7-.4,2.5.1,6.1,0,8.8s-.1,1.5-.3,1.7h-.3c-.8-.5-1.7-4.5-2.4-4.8s-.4.3-.4.5c-.2,1.1,0,2.1-.4,3.1h-.3c-.3-.2-1.1-2.3-1.3-2.8-1.3-3.2-2.3-6.9-3.8-9.9s-.9-2-1.2-.2c.3,7.1-.4,14.6,0,21.6.1,1.8.7,4.8,2.5,5.6s6.5-1.5,7.5,1.8c.5,1.8,0,4-1.9,4.6s-6.6-.8-9.2-1c-4.1-.2-7.6,1.1-11.3,1.2s-4.3-1.8-3.7-4.5c.9-3.9,5-1,7.4-1.9s2.6-3.8,2.8-5.8V20.1c-.3-3-.8-6.3-4.6-6.1s-2.8.7-4.1.2c-2.4-.9-2.1-5.9.7-6.5s5.7.5,8.2.5,6.1-1,8.3-.4,1.2.7,1.6,1.2c3.2,8,6.1,16.1,9.2,24.2.3.7,1.5,4.2,1.9,4.5s.6-.3.6-.6c.2-2-.1-4.6,0-6.7s.2-2.8,1.2-.8,1.3,3.8,1.8,4,.2,0,.3,0c.3-.7.2-1.4.4-2.1s.2-.5.4-.4l.4.5c1.8,4,3,8.5,4.8,12.5s.6,1.3.8,1.3c.5,0,.4-.8.5-1.3-.4-8,.5-16.4,0-24.4,0-1.6-.5-3.6-1.5-4.8-2.2-2.6-5.2.2-7.3-1.1s-1.8-4.2-.4-5.5,5.1-.4,7.1-.1c2,.3,5.1.4,7.9.1s9.3-2.6,9.1,2.8c-.2,5.7-7,.6-8.4,5.7-.6,2.1-.3,4.4-.4,6.5-.1,4.7-.2,9.4,0,14.1s.2,1.9.2,2.8c.2,0,.2-.2.2-.4.7-3.3.8-6.6,1.7-10,4.1-15.1,17.1-23.1,32.6-19.6,15.5,3.5,5.1,2,8,3.6s1.1-.2,1.9-.8c1.3-1.1,1.6.5,2.1.5.6-.3.6-1,1.5-.9s1.2,1.3,1.7,1.7,1.5,0,2,1l.2.7,6.6,21.7v.5l.2.2ZM246.3,102.6c.1-1.2-1.7-1.9-1.6-3s3.8-3,4-4.9,0-3.2-.2-3.7-2.6-1.6-3.2-1.6c-5-.6-5.7,6.8-4.6,10.2s.8,1.6,2,2.1,2.4.9,3.6.9Z"/>
  <path d="M15.5,6.7l4.6.8c1.9,0,3.8-.4,5.7-.8h.9c1.2.3,1.8,1.1,2.2,2.1,2.2,8.4,2.9,17.4,4.8,25.8,1.9,8.4.4,1.8.8,1.7.4-.4.4-1,.6-1.5,1.4-5.8,2.1-12.1,3.4-18s.4-2.3.7-2.3c.6-.1.7.8.8,1.2,1.4,5.8,1.7,12.3,3.3,18s.2.7.3,1h.3c.4-.2.8-2.8.9-3.5,1.3-6.6,2.3-13.3,3.7-19.9s.7-4,2.7-4.6h.8c3.4,1.3,6.8,1.2,10.2,0h.7c2.3.3,2.8,3.5,2,5.3s-3.4.3-5,.9-2,3.6-2.2,5.2v42.6c.2,1.6.4,4.5,2.2,5.2s3.7-1,4.8.5c1.1,1.5.8,5.6-1.3,5.7s-4.3-.7-6-.8-3.5,0-5.3,0-3.5,1-4.8.6c-2-.7-2-5.2-.2-6.1s2.9.5,4.1-.3,1.7-4,1.8-5.3c.6-5.8,0-11.9.3-17.8-.4-8.6.5-17.6,0-26.1s-.2-1.8-.4-1.8l-.3.4c-4,18.4-7,37.1-11,55.5-.9,2.6-4.7,3-5.7.3-3.7-17-6.4-34.2-9.9-51.3-.1-.6-.9-4.7-1.2-4.8h-.3c-.3,2.3-.2,4.5-.2,6.8,0,9.8.2,19.5.3,29.3s-.5,11.7,1,13.9c1.5,2.2,4.8-.4,5.8,2.6s.3,4.9-2.1,5-3.7-1-5.4-1.1-3.8,0-5.2.2-3.7,1.6-5.2.3-1.1-3.3-.6-4.6c.9-2.1,2.8-.7,4.4-.8s2.5-3.5,2.7-5.2V18c-.2-1.6-.5-4.4-2.2-5s-3,.8-4.4-.1-1-3.4-.6-4.5,1-1.3,1.9-1.6h.8,0Z"/>
  <path d="M67.2,152h-1.5c-.6-.3-.6-.4-.4-1,.5-1.2,2.8-3.6,2.8-4.8s-.9-2.9-1.1-3.7c-1.1-4.1-1.9-8.3-3-12.4-.2-.3-.5-.6-.8-.6-3,.2-6.4-.3-9.4,0s-.9.4-1.1,1.1c-1.1,3.3-1.8,7.8-2.7,11.3s-1.1,3.5-1.1,4.4.2.7.4,1.1c.4.8,2.3,2.8,2.3,3.5s-.5.7-.9.7c-2.3.3-5.2,0-7.6.1s-3.5.2-5.3.2-.5,0-.6.1h-.8c-.5-.3-1-.1-.7-.9s2.2-2.9,2.8-3.7c1.1-1.6.5-1.7.5-3.4-.2-4.1,1.2-8.7,2.2-12.7s1-4.1,1.9-5.9,1.3-1.6,1.2-3.1-.3-2.5,0-4.5c1.1-6.6,3.1-13.3,4.3-20,.6-1.7,3.2,0,3.8-1.7.9-3.4,1.6-6.9,2.5-10.3s2-7.9,3.2-11.3,1.3-.5,1.6.7c2,6.9,3.5,14,5.2,21,.6,1.4,2.7,0,3.3,1.6l4.4,21.3c.2,1.1-.2,2.3-.2,3.4s.9,2.1,1.3,3.1.5,1.3.7,1.9c1.4,4.7,2.3,9.9,3.4,14.8.2,1-.2,2.4,0,3.3s2.5,3.4,3.2,4.5.5,1.4-.9,1.5c-4,.3-8.5-.3-12.5.2h-.3v.2ZM58.4,107.4c-.2,0-.2.3-.3.5-.7,3.3-2.2,7.3-2.6,10.6s0,1.1.7,1.2c1.4.2,3.3,0,4.7,0,.4,0,.7-.5.6-1-1-3.3-1.3-7.3-2.4-10.5s-.3-.9-.6-.8h-.1Z"/>
  <path d="M109.8,89.5c-.4.4-.3,2-.3,2.6,0,3.5,1.1,7.7-1.9,10.4s-1.6.6-.9,1.8,1.8,2.1,2.6,3.6c6,11.9,0,33.9-16.6,30.8-.6-.1-2.2-.7-2.6-.6-.9.1-.5,2.1-1.1,2-.8-.2-1.3-1.9-2-2s-2.1.8-3.2.9-1.6-.4-2.4-.5c-1.7-.3-1.5,1.3-2.3,1.7s-.7-1.2-.7-1.7c.2-6,1.1-12,.8-18s-1.9-11.3,2.4-13.3,2.1-.4,2.1-.9-1.5-2.4-1.8-3c-5.6-10.9-1-30.8,13.9-29.8s2.1.5,2.9.5c1.6,0,.4-3.1,1.4-3s1.8,2.4,2.2,2.9c.9,1.1,1.1.6,2.3.4,2.8-.3,4.5,1.6,5,4.3s-.3,2.7,1.8,2.7,3.7-.6,5.5.2,1.6,1.4,3,1.6c2.1.2,4.4-.2,6.5,0,2.1,0,2.3.5,3.4.6,1.9,0,4.7,0,6.7,0s3.1-.5,4.6-.6,3.7,0,5.5,0,2.7-.4,3.3,0,.4,1.1.8,1.2.8-.3,1.2-.3c1.3,0,1.2,3.1,1.2,4,0,2.2.7,3.9.8,6s-.2,4.8-.3,7.1,0,4.6-1,6.5-.8.9-1.2.9-.4,0-.5,0c-.6,0-1,.4-1.6,0s-.6-.6-.7-.8c-1.4-2.5-1.2-6.2-1.4-9s-.2-1.1-.2-1.5c0-1.8.5-4,.4-5.8s-1.3-2.3-2.5-2.5-3.8,0-5.2,0c-2.1.2-2.8,2.4-3,4.1-.5,3.8-.2,8.4-.2,12.3-.1,9.2-.2,18.5-.1,27.8.2,1.3.4,3.7,1.7,4.4s2.6.6,3.5.5c1.9-.2,3.3-1.4,3.6,1.4s-.6,6.8-.9,8.5-.2,1.3-1,1.4-4,0-4.9-.7.5-3.7-.2-4.7-1.6-.8-2.1-.9c-1.4-.3-4-.3-5.4.1s-1.4.5-1.6.9c-.5,1.2,1.3,3.6-.3,4.5s-3.6,1-4.9.7-.7-.9-.8-1.4c-.3-1.4-1.4-7.2-1.2-8.3s.5-1.4.5-1.5c.5-1.1,2.4-.2,3.3,0s2.7,0,3.4-.5c1.2-.7,1.5-3.2,1.7-4.5v-39c-.2-2-.8-4.8-3.1-5s-1,0-1.4,0c-1.7,0-3.8-.7-5.2.4s-3.3,6.5-4.8,8.6-1.2-.3-1.2-1.2c-.2-1.9,0-4-.2-5.9s-.2-1.4-1-1.5-2.7,0-3.4,0-.6,0-.7.3v-.3ZM94.7,84.6c-4.2,0-5.1,5.5-4.7,8.8s2.3,4.7,5.7,5.7,2.8.9,3.7,1c1.5.2.8-1.1.8-2,0-4.3,1.4-13.7-5.5-13.5ZM88.5,109.4c-.8,0,0,1.9,0,2.6.3,4.5-.8,13.7,5,15.5,7,2.2,9.2-6.5,7.7-11.6s-5-4-8.4-5-3.9-1.5-4.2-1.4h0Z"/>
  <path d="M79.9,18.7c16.5-1.1,23.5,12,23.4,26.7,0,14.9-7.4,29.7-24.5,27.8s-16.2-9.7-17.9-19.3c-2.5-14.3,1.5-34,19-35.2ZM81,35.3c-2.2.4-3,5.8-3.2,7.6-.3,3.2,0,10.7,2.1,13.2s2.7.9,3.7-.4c2.8-3.7,2.7-14.9.7-18.9s-1.7-1.8-3.3-1.5Z"/>
  <path d="M26.8,74.6c2.2-.2,2.9.6,4.8,1,1.9.4,2.2-.9,3.8-1,6.3-.2,5.2,8.6,5.1,12.7,0,4.2,0,8,0,12.2s.2,3-.2,4.7c-1.3,6.8-9.3,5.7-9.9-.6s.7-9.2-1.3-13.7-4.5,2.9-4.9,4.8c-1.4,6.2-1.4,12.8-1.1,19.1.2,4.6.6,10.8,2.7,15,2.1,4.2,1.8,3.1,3.2,1.2,3.6-4.7.2-14.2,4.4-17.4,4.2-3.2,5.3-1,6.8,1.2,2.1,3.2,1.2,11.2.5,14.9-1.2,6.5-4.9,15.1-12.5,15.6s-14.1-13.6-15.2-21.7-.9-13.1-.6-19.5,3.3-27.7,14.6-28.5h-.2Z"/>
  <path d="M151.5,76.8h1.9c2.5.2,5,.6,7.6.6s3.2-.3,4.8-.3,2.8-.3,2,1.1-4,4.6-4.2,5.8.3,2.4.3,3.5c-.4,13.6.5,27.4,0,41,0,1-.8,3.1.6,3.2,4.2,0,8.4-.1,12.6,0s1.8.2,2.6.2,1.8.2,2.6-.6c1.5-1.3,3-3.6,4.6-4.9s.5-.5.9-.4c.3,0,.4.8.4,1,.2,2,.1,4.2.2,6.3s.4,3.5-.3,5.6-1,.8-1.9.8-2.2-.3-3.2-.2c-1.6.1-3.3.9-5.2,1-3.8.2-8.3.2-12.1,0s-3.1-.6-4.9-1.2-7,.1-9.5.2-1.7,0-1.1-1.1c1.1-1.8,3.4-3.5,4.7-5.3s.4-2.7.3-4.3,0-2.1,0-3.1c-.3-11.9-.5-24.7,0-36.7v-2.3c.1-1.7.8-2.3-.2-3.9s-2.9-3.4-4.1-5.3c-.2-.6-.2-.8.4-.9l.2.2Z"/>
  <path d="M133.8,9.5c2.4-.2,6.1.9,8.6,1.1s4.9,0,7.1-.2,4.6-1,6.1-.9.9,1.4,1.4,1.7,1.2-.3,1.9.3.4,2.4-.2,3-2,1.3-2.5,1.4c-.9,0-1.7-.2-2.6-.3-4-.3-4.8,2.6-5.1,6v41.1c.3,3.1.9,6.4,4.8,6.2s2-.5,2.9-.3,2.9,2.1,3,2.8c.2,1.2-1.3.8-1.7,1.3s.7,1.8-.7,2.2-5.9-.7-8-.9-5.1-.2-7.6,0-5.3,1.2-7.2,1-.7-1.4-1.4-1.7-1.2.4-1.8-.2-.4-1.6,0-2.2,1.9-1.9,2.3-2.1c1.3-.6,2.9.2,4.3,0,3.1-.2,3.7-3.6,3.9-6.1V21.7c-.3-3.4-1-6.4-5.1-6.1s-2,.7-3.4,0-2.4-1.4-2.2-2.7,1.2-.8,1.3-1.1c.2-.4-.2-.8-.2-1.1,0-.8,1.3-1.2,1.9-1.2h.2Z"/>
  <path d="M112.2,16.9h1.6l.2.2c.2.5-.9,1.4-1.3,1.7-1,1-4.1,3.2-4.4,4.3s0,2,.2,2.9c.7,3.1,1.8,6.5,2.7,9.6,1.7,5.7,3.4,11.6,5.3,17.2s.7,3,1.5,1.7l8.9-30.1c0-.8,0-1.5-.4-2.2s-3.3-3.7-3.3-4.4,0-.3,0-.4c.3-.2.7-.2,1.1-.2,2.3,0,4.5.5,6.9.3s3.8-.6,5.5-.6.7,1,.2,1.7c-1.7,2.1-3.5,3.2-4.3,6s-.8,3.8-1.2,5.7c-3.5,14-7.7,28.2-11.6,42-3.9,13.8-1.1,4.5-1.5,4.9-.6.7-1.1-1.3-1.2-1.7-4.1-12.6-7.3-25.8-11.1-38.6s-2.4-8.4-3.8-12.2-3-3.7-5-5.6-1.8-1.6-.4-1.8,4,.3,5.7.3c3.4.1,6.6-.6,9.9-.9l-.2.2Z"/>
</svg>