<?xml version="1.0" encoding="UTF-8"?>
<svg id="Layer_1" xmlns="http://www.w3.org/2000/svg" version="1.1" viewBox="0 0 2126.8 2521.2">
  <!-- Generator: Adobe Illustrator 29.5.1, SVG Export Plug-In . SVG Version: 2.1.0 Build 141)  -->
  <defs>
    <style>
      .st0 {
        fill: #fff;
      }
    </style>
  </defs>
  <path d="M1081.6,26.3c26.2,8,29.9,37.3,40.5,59.1,43.6,90.1,99.3,173.8,148.6,260.7,5.4,3.9,33,.7,43.2,2.5,14.8,2.7,37.3,15.2,52.4,20.7,30.6,11,64.4,19.8,93.1,34.8,42.7,22.4,92.4,49.9,134.1,74.2,23.2,13.5,42.9,32.9,64,49.3,17.2,13.2,48.4,30.8,60.9,46.9,6.4,8.2,10.5,25.5,22,25.5,89.9-11.2,180.6-15.3,270-29.8,23.3-3.8,84.9-27.6,83.8,16.1s-23,41.4-32,55.9c-49.3,79.5-88.8,165-132.6,247.6-1.3,9.6,10.3,18.2,14.9,26.9,11.7,21.8,19,63.5,26.2,88.9,5.3,18.8,14.6,39.8,18.4,58.4,5.9,29.1,5,67.2,8.1,97.8,2.7,26.7,9.6,55.9,11,82.1s-6.4,60-9.2,89.6c-3.4,35.7-2.9,78.6-9.7,112.7-5,25.1-17.2,55.8-24.5,81.5-6.1,21.1-8.9,48.9-20.6,67.1s-18,12.7-4.7,39.3c33,65.9,70.1,138.1,107.3,201.5,13.6,23.1,35.7,50,46.9,71.9s1.4,7.1,3.9,9.8v16.4c-3.3,8.7-10.1,15.9-19.6,17.9-15.6,3.2-51.6-8.7-69.6-11.8-27.1-4.6-54.6-6.9-81.7-11.5l-187.8-17.9c-11.2,7.2-12.9,21.7-22.3,30.7-37.2,24.2-71.7,59.7-108.2,83.7-25.8,17-60,32.2-87.7,47.5s-52.1,33.8-79.2,45c-21.1,8.8-126.5,49.7-141.8,50.1s-21.9-4.4-28.1-.7c-49.6,88.7-105.5,175.4-149.6,267-10.6,22-24.4,81.3-60.5,54.5-11.9-8.9-22.4-44.9-29.6-59.9-37.6-79.1-88.2-171.1-134.7-245.4s-18.2-10.7-39.6-11.5c-20.8-.7-65.6-21.6-87.6-29.4s-48-13.4-70.4-24.6c-21.2-10.6-42.5-25.3-63.9-36.6-26.9-14.2-62.8-28.6-87.3-44.3-18.3-11.7-37.6-29.8-55.5-43.2-17.3-13-52.7-32.7-64.6-48.7-3.6-4.9-9.6-20.7-13.8-22.7-6.3-3.1-20.8,1.9-28.4,2.7-85.4,9.5-174.6,16.1-258.9,31.7-20.5,3.8-62.1,17.9-80.1,13.2-10.1-2.6-18.6-14.9-18.1-25.4.8-16.5,22.5-38.5,31.7-52.5,55.5-84.3,99.9-175.3,150.4-262.5,6.7-11.5-8-19.4-13.8-29.1-11.6-19.3-18.3-61.1-25-84.6s-19.5-52.8-22.8-77.7c-4.4-33.3-4.2-70.3-7.4-104.1-2.9-31.3-11.1-61.6-9.2-93.3,3.4-57.2,19.1-118.2,18.8-176.7,19.1-45.7,25.3-103.4,43.8-148s16.6-19.4,19.4-32.9c-46-81.4-87.4-167.3-137.8-246s-65.9-75-27.6-91.8c18.8-8.3,51.5,5.2,72.1,8.9,94.6,17,191.2,21.9,286.4,35.3,17.7,3,19.6-21.7,31-31,37.1-23.4,71.2-55.1,107.4-79,31.4-20.7,72.7-38,106.7-55.9s33.3-20.5,49.9-28.7c28.4-14,67-23.3,97.8-33.7,18.1-6.1,37.2-17.3,56.5-18.4s27.2,4.5,33.1.2c23-41.6,48.9-81.8,72.4-123.1,18.2-32,38.2-66.1,54.8-98.7,8.7-17.1,32.3-78.7,42.6-87.1,5-4.1,10.4-4.2,15.6-7.3h5.5ZM1078.2,305.5c5,3.1,17.6-4.2,20.8-8.8,1.5-3.3-8.1-12.5-7.8-18.9s8-12.2,9.6-17.5c6.7-22.2-13.7-27.3-15.2-43.4s4.1-12.3,5-18c2.7-18.1-14.8-94.9-20.9-115.9-1.5-5.3-3.1-14.6-10-14.6-1.6,17.6-28.8,52.3-29.4,66.7s13.3,15.4,17.4,22.9c7,12.9,11,39,5.6,52.9s-18.9,8.2-22.6,14c-4.3,6.7,4.5,42-9.5,54.3-20.2,17.8-21.9-17.2-27.2-20.1s-12.2,10.1-13.4,14.1c-4.7,15.8,3.2,13.9,6.5,24,4.5,13.3-12.9,29.5-7.8,45.2l-5.6-1.1c-8.2-31.1-34.9,6.6-18,14.7,5.3,2.5,26,3.6,31.9,2.9,22.3-2.6,16.8-47.9,44.5-45.9-1-18.8,1.9-36.6,12.2-52.7s16.7-19.8,23.2-7,4,48.1,10.8,52.3ZM1261.4,506.2c-17.9-18.8-8.3-38.6-14.6-59.4-3.5-11.5-14.7-9.7-10.3-27.4,3.5-14.3,17.3-21.6,19.8-31.3,2.4-9.3-.5-20.1,2.3-29.8-31-47-56.1-104-87.7-149.9-3.3-4.8-6.6-8.8-7.1-.3-1.8,32.7,24.3,52.4,27.4,73.2,1.3,9.1-2.5,23.2-1.7,34.6.8,11.1,4.9,22.9,7.3,33.8,6.3-.1,7.6-7.9,13.7-9.1,24.2-4.6,44.4,31.2,10.7,34.6-6.7.7-11.8-2.1-18-1.8-6.6.3-13.1,4.8-20.2,5.6-9.6,1.1-63.6,1.4-70.5-.8-11-3.6-2.5-9.9-1.7-14.8,1.5-9.4-9-10.2-14.6-16.3s-14.2-32.9-19.1-31.9c-8.1,1.8-11.5,26.9-15.6,33.8,3.6,8.4,14.8,11.7,12.7,22.7-8.8,4.4-34.4-5.3-36.1,8.7s16.1,35.4,24,39.3c10,4.9,31.9,4.9,42.9,2,21.5-5.8,11.8-8.2,15.4-24.8s31.5-11.5,34.2,3.4,2.3,19.8,1.9,23.5c-1.2,9-11.1,14.1-11.1,20.3s6.2,15.8,7.8,18c4.2,5.9,13.4,8.4,19.7,13.2,10.9,8.3,15.6,19.1,24,29s21.4,20.8,29.3,34.7c28.1,4.5,55.6,12.2,83.6,16.9,32.3,5.5,62.2,5.7,93,18.5,12.8,5.3,49.6,30.5,58.3,31.4s10.6-6.2,11.5-13.9c1.9-16.2-.4-32.6-4.3-48.2l-2-1.7c-10.2,4.3-20.1,6-29.1-1.9-4.2-3.6-21.9-24-24.4-28.6-4.1-7.5-3.2-18-14.8-21l1.6-5.1c-6.3-4.4-23.5-6.6-16.4-17.7,4.5-6.9,19.9-4.5,27.5-6.3l-1.9,3.6c6.5-1.5,13.2,5.5,15.8-1.7,9.2,2.1,13.7-4.2,22.7.7,1.6.9,12.9,9.6,14.6,11,21,19-10.8,25.3-1.6,43.7,1.8,3.6,7.2,8.6,9.8,12.1,5.2-8.6.4-24.2,13.2-27,9-2,33.5,3.8,41.3,9s7.7,11.8,13,18c3.4,4,9.3,6.1,11.7,10.2,1.7,2.9,7.1,21.9,7.2,25.4.2,21.1-29.1,57.2-15.3,76l88.8,57.4c21.7,18.8,24.6,72.3,61.3,39.2l-1.8-18.3-21.2-6.2-21.7-32.9,3.1-6.5c5-2.8,25.7,4.5,35.7,0s.4-6.3,4.7-5.7c-1.5-9.6-11.2-11.4-14.3-15.5s-8.6-26.6-3.9-32.8c5-6.7,10.1-2.5,15.1-3.1s21.4-3.3,22.5-4.9c4.7-6.5-8.4-31-13-36.5s-20.5-13.2-27.3-20.2c-2.3.2-7.3,14.7-7.8,17.7-1.6,10.1,1.6,18.3,1,26.4-.8,10.8-7.9,28.8-20.6,28.9-28.2.3-60.8-59-60.9-83.2,0-7.6,4.9-15.9,5.2-23.7s-2.2-27.4-3.6-29.4c-35.1-18.8-69.2-39.5-104.2-58.4-12.5-6.8-26.8-9.9-37.2-21.3l-74.5-26.2c-6.2,11.2-19.5,16.2-25.3,27.8-2.7,5.4-12.3,37.5-4.6,39.1,7.3,1.5,10-7.4,16.6-8.9,29.2-6.6,31.3,35,1.9,30.3-5-.8-9.1-4.5-14.1-5.1-6.8,16.5,11,33.4-1.8,48.5-15.6,18.4-63.7,2.4-78-12.6ZM929.9,322.3c-4.4-.7-9.5,2.3-9.1,7.3h9.1s0-7.3,0-7.3ZM1056,349.7c-1-1-5.4,1.5-5.4,2.7,0,5.1,8.2,0,5.4-2.7ZM892.1,383.8c-3.1-4.9-1.6-18.5-10.6-18.8s-12.9,8.9-16.9,10-12.2-3.7-17.8-3.3c-5.7.4-10.1,6.3-15.6,7.3,6.4,7.5,18.2,24.5,28.5,25.6s11.9-5.3,19-6.6,21.6,1.7,19.3-8.2-5-4.4-6-5.9ZM821.7,375.9c-7.7-2.3-16.4,1.4-22.9,5.2,3.6,18.8-16.9,40.3-35,29.7s-4.7-15.5-13.7-15.6c-4,0-24.8,6.9-29.6,8.9-4.1,1.7-29.8,15.8-29.8,17.7,8.6,10.6,25-3,32.9,1.8s6.5,8.9,10.1,11.9,15.7,11.5,20.4,14.3c7.5,4.4,20.8,7.5,26,12.4,5.6,5.1,6.6,13.7,11.2,19.9,11.9,16,21.3,9,36,13.3,17.9,5.2,24.2,24.1,43.5,22.4,4.8-.4,8.6-3,12.9-3.5,20.4-2.6,30,17.6,54.7,19.9,23.1,2.2,73.3-.6,96.9-3.6s13.2-7.2,20.1-7.5,8.4,3.1,12.8,3.7c9.9,1.3,53.7,7.1,59.9,5.2s7-19.2,6.8-26.2c-.2-6.3-1.9-25.6-5.5-29.2s-3.6-2.4-5.9-3.2c-6.6-2.4-37.1-5.5-43.9-4.5-13.8,1.8-21.4,16.6-33.1,21.9-9.9,4.5-25.8,6.6-36.4,4.7-27.6-4.8-35.2-52.9-48.1-72.5-3-4.6-35.9-42.3-38.5-43.7s-3.3-2-5.3-2.1l-4.3,3c-2.5,7.7,3.8,9,4.9,12.9s-.3,8.8,1.2,13.5,8.6,8.4,10.6,13.1c6.5,15.7-10,18-15.2,29.7-4.8,10.7,5,15.5,5,20.1s-7.9,8.7-12.9,8.2-16.2-5.2-18-5.9c-6-2.5-6.7-9.6-12.3-12.3-1.9,5.5-10.9,15.1-15.8,18-5.3,3.1-11.3,3.1-16.6,5.4s-15.1,12-22.4,8.6c-10.9-5-9.5-26.7-11.8-35.8-1.4-5.7-6.1-9-7.4-12.7-5.7-16.3,7.4-15.2,15.3-24.9-4-15.1-8.8-28,9.3-35.4.9-5.8-3.4-3.6-5-4.4s-.5-2.1-.9-2.2ZM627.6,511.5c1.4-1.7,1.6-4.6,3.4-6.6,3.5-3.9,16.6-9.7,15.7-13.6-9.2-9.3-23.3-5.4-34.8-9.1-5.1-1.7-10.9-8-15.4-8.1s-22.9,8.8-24.9,11.6-.5,13.6-4.5,19.1-13.6,7.4-15.4,14.7c16.4,5.6,22.3-7.1,37.6-7.3s30.8,8.7,38.4-.7ZM684.5,569.4c6.7,7-3.8,13.2-.5,19.7,4.8,9.4,27.7,4,35.7.9,6.6-2.6,14.4-10.3,19.6-11.5,11.7-2.6,45.3,2.3,33.2-21.2-5.5-10.7-17.1-10-26-14.2-15.6-7.3-35-18-50.3-26.5-4.6-2.6-31.5-22.6-34.9-19,.7,7.1-1.6,16.7,1.2,23.3s12.8,5.6,13.5,12.4-9,11.8-6.9,21.3,10.9,9.9,15.5,14.7ZM523.1,584.2c1.9-2,4.6-2.4,6.4-5.5s10.2-26.6,10.4-28c.5-3.8-.6-12.9-5.5-12.9s-25.1,10.7-27.5,12.8c-7.2,6.4-9.6,23.3-11.8,24.8s-10.5.2-16,2.3-16,11.8-22.6,15.8c-11,6.7-23.6,10.3-31.8,21.1-2.8-4.5-1.5-7.3-7.4-9s-38.7-5.9-41.9-5.6c-5,.5-4.9,5.4-8.8,7.9-10.7,6.8-29,1.3-35.1-9.8-57.8-11.1-118.4-13.4-177.1-22.1-25.6-3.8-60.8-15.2-84.4-16.2-6.7-.3-13.1.4-13.8,8.2-1.6,17.9,32.7,48.5,38.6,66.7,16.6-12.8-6.7-29.9,9-41.2s30.9-5.2,41.3-4.5c43.5,2.8,90,18.8,133.6,23.6s70,11.4,108.1,18c6.5,1.1,22.2.8,26.4,2.4s2.8,6.3,5.9,6.7,19-10.2,23.8-12.3c32.5-14.4,53.7-15.1,80.2-43.1ZM430.5,746.6c7.7,9.4-3.3,38.8,6.7,47.2s46.1-10.4,42.9-22.6c-3.3-12.8-46.4-10.3-24.5-39.7,6.3-8.5,47.3-41.5,56.7-41.7,4.9,0,10.2,3.3,15.7,2.5,10.5-1.5,47.2-33.7,58.5-42,9.7-7,43.8-25.7,48.1-34.1,4.4-8.4.7-21.2,13.4-25,6.6-2,28.5.2,21.5-11.5-4.7-7.8-18.5,3.6-24.2,5.1s-11.5.5-17,1.3c-3.5,7.7-5.6,16.8-12.9,21.8s-13.6,4.3-20.1,7.4c-4.1,1.9-8.4,7.3-14.4,9.3-5.9,1.9-11.9,3.3-18.3,2.8l1.9,3.6c-15.6-1.3-52.8,15.7-58.3,30.4-1.7,4.5,9.5,2.1,11.9,9.8,2.9,9.4-7.7,14.9-14,8.3s.3-11.6-6.3-11.9c-15.4,15.1-32.5,31.9-52.3,40.9-17.1,7.7-35.6,8.2-52.8,15.7,5.3,10,18.5,11,27.2,15.7s10.3,6.2,10.7,6.7ZM2053.4,599.5c4.5-4.5,2.1-15.3-3.2-18.8l-101,16c-4.2,1.7-6.5,10.3-10,12.4-6.9,4-65.1,19.5-74.3,20.2-17.6,1.4-36.9.9-30.2-22l-74.9,5.5c-1.4,7.4,6.3,12.2,6.7,19.4s-4.4,13.5-.7,16.6c5.7,2.7,11.1,4.4,17.4,5.5,33.4,6,67.3,7.7,99.5,15.6s12,.5,20,5.2c7.6,4.4,5,9.8,6.8,11.8s13.7,4.5,9.4,9.9h5.5c2.5,2-24.3,52.4-36.5,49.5l1.6,3.4c-11,3.1-18,12.8-28.2,18.5-8.7,4.8-21,2.8-16,15.9,4.3,11.3,19.4,31.2,26.3,43.1,11.5,19.9,10.6,38.5,30.4,10.9,30-41.7,53.6-91.7,81.8-133.8,8.7-13.1,23.7-26.8,33.6-39.4s25.9-32.8,27-36.9c6.7-25.2-22.1-1.3-28.6,4.3-12.9,11.1-24.2,23.9-39.8,33.3-28.3,17.1-19.2-12.2-22.9-24-1.3-4.1-6.6-3.6-8-8.4-2.4-8.5-1.4-17.4,9-16.7,7.8,8,3,17.5,16.5,16.4,5.4-.4,24.9-6.3,29.2-9.2,9.9-6.8,14-26.2,33-25.2s14.7,7.3,20.7,1.3ZM1713.9,638.3l-3.6.9c3.3,4.5-1,10,7.3,8.2.7-3-3.1-.7-3.7-3.1s.2-4.1,0-6ZM226.1,733.1c1.5-5.4-.5-9.2-3.4-13.5-10.1-14.6-50.9-51.7-68.7-53.8s-9.5,2.7-14.6,3.5c-9.6,1.5-20.5-13.8-29.1-16.4-2.5-.8-3.3.2-2.7,2.7l46.7,81.2c10.1,12.5,25.6,18.6,28,35.9s9.2,32.3,17.4,48.2c9,17.5,20.2,34,28.7,51.8l11.5,4.9c15.1-21.3-5-35.8-2.5-55.7s5-12.6,4.3-19.6c-.9-9.4-9.4-17.5-11.3-24.9s0-10.3-2.2-16.1c-3.3-8.6-24.5-20.3-2.2-28.4ZM359.7,689.5c-19.7-4.7-23.9,13.8-34.1,21.7-15.9,12.3-43.6,1.7-34.6,36.9.7,1.1,20.2,2,22,1.8,4.9-.5,9-2.7,12.8-5.5,2.9-9.1,41.2-47.4,33.8-54.9ZM1747.8,723.3c-8.8-6.7-18.4-15-28.5-19.9s-15.1-4.1-21.8-8.3l-1,16.5c1,1.7,13.1-1.8,19.8,3.5s8.4,24,8.2,30.2c-.4,12.1-9,21.7,5,32,8.5,6.3,8-.1,15.1-1.5s8.6,5.8,13.3,7.9c9.9,4.5,19.3-3.2,28.5-4.4s35,5.3,23.5-12.9c-4.4-7-23.5-20.1-30.5-25.6-1.8-1.4-9.6-9.9-11-10.4-7.1-3.1-12.1-.6-20.5-7ZM273.8,760.7c.7-3.3-1-3.6-3-5.2-3.5-2.6-31.2-17.2-33.5-14.9-.4,3.7.8,8.1,0,11.6s-8.9,3.8-.6,10.3c3,2.4,35.3.9,37.2-1.8ZM610.6,818.7c8.2,6.6,32.8,0,41.5-5.8,0-4.8-39.7-12.2-44.9-.9-.5,1.6,2.5,6.1,3.4,6.8ZM739.8,810.1c-8.1-4.4-15.5.2-22.8.1-9.2,0-19.6-4.6-28.4.9l2.2,5.9,33.4-1.7,15.7-5.3ZM1396.4,821.5c-6.2,6,7.7,15.7,12.9,18.1,31.8,14.4,67,1.4,99,1.4s13.4,5.3,20.1,5.8,12.6-2.9,18.5-3.1c11.4-.5,35.4,7.8,29.4-13.9s-8.8-18.9-9.6-19.6c-7.1-5.8-23.9,1.1-32.8,1.9-15.4,1.3-30.5-2.9-45.8-2-7.2.4-15,3.4-21.9,3.7-15.6.8-58.9-2.8-69.9,7.8ZM353.7,827.1c-5-5.5-17.4-7.2-24.4-9.3s-4-6.2-13.9-1.7c-17,7.7-21.4,20.8-14,37.8,9.3,1.8,16.3-6.1,24.2-9.3s21-6.5,32.3-7c.9-.8-3-9-4.2-10.4ZM1738.4,835c-6.1-5.4-15.9-24.9-26-14.6-2.6,7.8,10.2,28.3,14.7,35.9,6.3,10.6,18.4,29.4,29.4,34.5s11.8,1.5,15.9,6c0,3.9-16.5-.2-16,16,.9,25.3,11.2,25.2,21.2,41s5.1,17,9.4,21.7c7,7.6,13.6-7.6,20.1-9.4s11.5,2.2,18.8.7c12.7-2.6,15.6-16,34.9-4.8,15.6,9.1,23.9,47.5,24.9,64.6.7,12.6-4.4,22,2.9,33.7s17.3,17.7,22,18.3c12.7,1.8,10.9-14.3,24.5-11,4.5-4.2-12.9-36.4-12.8-41.2s7.9-10.2,10-15.5,2.1-12.9,4-19.7c1.7-6,7.8-12.7,8-17.6s-5.1-22.8-6.1-24.2c-2.1-2.9-13-6.1-14.7-10.1-2.5-6,1.1-10.7.8-16.9-.7-11.6-19.2-18.6-26.7-26.5-4.6-4.8-14.2-24.1-18.6-25.4-6.6-1.9-11.3,6.1-16.5,8.5-13.7,6.3-22.1-5.7-34.7-8.3-7.8-1.6-18.5-.7-26.5-2.7-6.9-1.8-57.6-28.4-62.9-33.1ZM1383.2,826.5c-13.3-14.5-34.2-3.5-50.2-1-23.3,3.8-44.3.6-67.5,10.3s-16,10.6-17,10.8c-13.8,2.8-33.7-3.4-48.7,4-2.8,1.4-2.7,4.4-3.3,4.8-1.1.8-21.4-1.9-26.3-1.5-12.9.9-26,6.5-38.5,7.1s-.6-3.1-2-3.4c-20.1-4.6-52.8-.9-72.7,1.9-11.8,1.6-27.2-1.4-39.4-.1l20.1-3.6h-26.4c0,.1-2-5.6-2-5.6-8.3-.3-17.3.8-25.6.2-19.3-1.5-41.6-7.4-60.6-10.4-14.1-2.2-28.8-2.4-42.9-3.4-15.1-1-18.7-7.6-27.5-11.4s-2.7.9-3.9.6c-4.9-1.1-9.5-4.6-13.9,1.8s-1.2,27.9,1.6,32.8,18.9,17.4,21.4,18.8c6.6,3.7,11.1,2.7,18.1,9.3,11.6,11,20.8,40,38.5,42,6.7.7,16-3,23.4-1.7s5.3,3.5,8.1,4.4c7.7,2.4,18.7-4,23.9-1.6,8.6,4,15.4,19.1,11,28.2,5.6-1.5,9.6,5.6,10.2,5.6,2.1,0,5.4-2.3,8.1-2.9s4.7,1,5.2.7c3.3-2.1,10.8-18.8,7.6-23.4,8.5,1.8,4.9-5.6,7.3-9.8s4-.7,5-1.6,1.3-7.1,5.1-8.7l3.7,7.3,5.5-3.7.9,3.6,6.4-3.7,1.8,3.8,6.4-3.7,1.1,3.8,30-5.6-1.8-3.6c7.2.8,10.9-2.5,16.4-5.5l-3.6-5.4,7.3-4.6-7.3-3.6c7.7-7.8,8.8-14.6,21.9-11.9l-3.6-3.6c7.6-.9,17.3-2.8,23.7,2.7l-9.1.9,10.9,5.5-7.3,3.6,3.3,2-1.5,3.3c6.5,3.6,14.4,4.6,21.1,7.3,11.9,4.7,7.4,15.3,8.1,25.7,13.2-8.1-.7-21.3-5.5-31l11.9,1.7,9.1,14.7,2.8-7.3c3,.7,2.1,4.4,6.4,5.4s2.2-14.5-3.7-14.5l-3.6,5.4-7.5-9c-.8-3.5,3.8-5.5,6.6-3.8l-1.8-5.5c12.7-1,25.2,8,20.1,21.9l-3.6-3.6c-2.3,11-1,22.8,0,33.9.2,2.1-1.5,4.2-1.6,5.5s8.3,7.2,11.1,4.1l46-32.6c9.5-13,16.2-37.6,30.4-46.4,7.1-4.4,16.6-3.6,23.5-7.5s10.3-13.7,15.4-18.4c14.7-13.7,33.1-10.5,49.5-15.3,5.1-1.5,8.4-5.4,13.8-5.4ZM239.5,879.8c-.2.2.7,2.5-.3,4.3-3.1,5.5-6.5,10.9-8.9,16.8,7.8,16.7,26.8-4.6,30.5-15.3.6-6.7-16.5-10.3-21.2-5.7ZM414.5,885c.9-10-9.5-9.6-5.5,0h5.5ZM710.1,929.3c-1-1-17.4-11.4-19.5-12.4-16.4-7.8-37.9-5.7-55.6-8.3-19.5-2.9-40.4-6.6-60.4-7.2s-15.7,2.6-23.8,1.9c-11.3-.9-17.2-8.5-31.1-7.3-15.9,1.3-10,8.5-16.4,14.7s-9.5,3.6-13.7,6.4c-6.3,4.2-7.4,14.4-16.4,10-4.3,5.7,1.3,12,1,15.5-.4,4-8,5.8-1.2,14.7s24.5,6.3,34.8,9,15.3,10.1,31.4,4.2c8-2.9,27.6-10.5,34.7-14.2,2.5-1.3,2.3-4.7,6.7-6.2,11.6-4,50.7,1.1,65.2.8,10.2-.2,43.2-3.5,52.4-6,6.6-1.8,20.1-7.2,11.9-15.5ZM1151,925.2c0-8.5-10.3-15.8-18.3-16.4l18.3,16.4ZM1660.5,976c1.9-10.3,14-32,10-41.2-10.1-23.1-55.8-20.1-76.4-20.5-16.7-.3-24.6.9-40.2,1.7-13,.7-29.8-1.8-41.9.1s-13.6,6.7-20.3,8.9c-20.7,6.7-45.2,3.6-63.6,16.8-16.7,12,16.8,16.9,25.5,17.8,12.6,1.2,25.5-.7,38.1.2,42.1,3,87.3,14.7,129.8,18.2,13,1.1,26.3,1.5,38.9-2.2ZM372.5,994.6c1.6-6.7,9.5-10.7,10.7-17.8,1.9-11.4-5.7-9.8-11.6-13.2-15-8.7-16.7-14.4-36.3-12.6-11.9,1.1-46.6,11.9-58.2,16.7-21.9,9.1-28.9,21.5-56.7,29.2-13.6,3.8-17,18-27.6,26.3s-5.6,1.1-8,3c-7.5,6-1.4,20.9-3.5,30.3s-12.2,16.3-10.6,26,2.5,3.6,2.6,4.5-2.9.5-3.6,2.2c-1.7,4.7-3.1,18.8-4.1,25-4.3,27.5-5.6,55.6-8.8,83.3,4,.6,5.7-3.6,7.3-6.3,10.4-17.3,17.5-39.8,28.9-57.1,1.4-8.5-10.5-14.9-6.6-32s7.8-7.3,10.2-11.8c3.7-7.2,1.5-21.9,4.6-32,3.4-11.3,12.6-24.8,16-37,9-5.6,20.3-6.7,29.1-13,13.4-9.6,12.7-28.9,35.3-24.1s9.6,6,13.2,6.1,14.5-6.6,20.3-8.3c6.4-1.9,11.3,0,16-.7,7.4-1.1,23.4-9.2,30-2.6s1.1,4,2.3,5.5,2.6,1.3,2.9,1.8c.7,1,.7,8,6.1,8.7ZM810.5,1024.6c-23.6-23.6-47.2-35.2-80.7-39-55.1-6.3-149.1,10.1-195.2,42.3-3.2,2.2-20.5,15.4-15.8,19.8,10.5,1.2,19.9-4.9,29.6-7.8,67.8-20.1,112.6-26.4,182.8-8.1,19,5,43.3,16.9,61.3,19.1s22.9-.6,34.1,2.2c4.5-2.5,1.3-5-.5-8.5-4.3-8.6-9-13.4-15.6-20ZM1609.8,1040.3c-.3-14.6-27.7-23.4-40.2-28.3-54-20.8-126-24.4-181.6-8.1-14.9,4.4-38.9,17.5-38.8,35.4,0,25.2,46.1,2.6,57.7-.1,50.9-11.9,108-18.7,159.5-7.6,14.6,3.2,27.1,11.9,43.4,8.6ZM1337.5,1270.5c-2.8-2.2-5.9-3.2-7.4-4.6-1.6-1.4.6-6.8-5.4-6.4l3.6-1.8-3.7-2.7,3.7-2.7-10.9-6.4,14.6-2.8c-6.2-8-15.4-9.4-23.5-3.3l1.6,3.3c-11.6-.9-21.8-5.4-32.9,0l3.6,1.8-3.6,5.4,3.4.3-1.2,4.9c.9-.8,4.8,8.2,5,8.9,1,3.7,3.6,20.9,2.5,23.8s-4.3,5.5-4.6,5.7c-2.8,1-4.3-4.2-6.2,2.3l-6.2-2v7.3s-2.7-1.4-2.7-1.4c-4.6,2.2-3.6,4.3-7,8.2-3.1,3.6-21.4,11.4-26.3,11.4s-5.9-3.1-9-3.6c-30.1-4.3-46.5,1.9-73.4-17.2-2.6-1.9-3.4-1.7-3.6-1.8-3.9-2.9-5-4.7-2.3-9.2-3.9-2-5.3-3.7-5.6-8.4l-3.6,1.8,1.8-16.4-3.6,3.6v-7.3s-5.5,3.7-5.5,3.7c2-4.3-3.7-6.1-3.7-6.6-.3-3.7,4.7-13.3,5.3-18.2,1-7.6-.4-15.9.2-23.6l-3.6,6.4c1-10-4.3-17.9-3.6-28.1s.9-7,3.5-6.6l10.1,9.1c4.2-3,2.6-8.2,2.7-12.7l5.4,3.6c2.9-3.8-.2-21.2-1.6-26.6l3.5-2.6-3.6-.9c7.5-6.3,2.6-16.1,3.7-23.6s4.1-7.6,5-11.5c2.1-9.7.7-20.8,2.7-30.2,5.3-24.6,21.3-41.7,25.3-69.9.4-2.6,1.8-16.8,1.7-18s-5.6-2.3-3.8-6.6l-3.2,1.2-1.4-3.2c-9.3.6-20.3,14.8-29.1,12.5s-.7-3.1-2.1-3.4c-7.7-1.3-30.5-4.2-34.3,1.7l-15.7-1.6,3.6,3.6c-6.2,1.7-14-1.7-19.2-1.5s-7.3,3.3-10.6,2.9-17.7-7.8-22.3-7.9-27.9,5.5-32.3,7.1c-23.4,8.6-20.7,32.1-14.3,51.6,3.5,10.6,11.8,23.2,13.6,33.6s-2.2,26.4-2.2,37.2c0,9.5,3.3,19.3,4.8,26s-8.9,23.7,5.7,21l1.9,14.6,5.5-5.5v29.2l-3.6-9.1c1.6,13.7-7.8,22.2.3,35.3s14.5,6.6,23.5,9.3,25.1,9,28.1,12.2c3.1,3.3,4.8,9.1,5.7,13.4s.1,18,.8,21.7,7.3,3.1,0,9.5l3.6,1.8-5.2,3.1c3.7,3.9-5.5,6.1-9.8,7.5-23.4,7.4-49.5,6.9-70.9,13.1-2.5.7-15.6,6.1-12.7,10.1,11,4.8,21.4,10,33.7,11.1,61.5,5.3,130.2-3.6,191.8-5.6s69.4,5.4,106.1,7.4c53.8,2.9,108.8-1.5,162.8-.2,39.2,1,79,7.7,118.2-.5,3.8-.8,14.3-3.2,16.2-6.2,5.2-8-8.2-38.3-.1-48.1l-3.6-1.8c7-4.3,12.1-3.9,19.1-9.2,8.7-6.6,15.8-20.6,23.8-25.7,3.8-2.4,16.7-6,22.7-10,18.3-12.5,33.2-36.6,24.8-59.2-4.2-11.1-15.2-13.5-23.8-5.6-7.2,6.6-27.7,39.6-31.4,49.1-.7,1.8-.6,3.9-.6,5.8l-2.7-1.4c-1.8,5.2-3.5,1-6.9,1.8-10.2,2.4-20.4,14.4-30.2,17.4-34.9,10.8-97.7,6.2-134.5,2-16.8-1.9-38.3-3.6-54.1-6.1-13.3-2.1-27.3-11.1-39.3-11.4-8.8-.2-16.8,5.3-25.5,1.4l-2.5,6.3,3.3,2.7h-10.9s3.6,3.7,3.6,3.7l-5.5,1.8,5.5,1.8-5.5,1.8,3.7.9c0,1.8-5.4.7-7.3.9,1.6,1.2,3.9,1.9,3.6,3.6l-9.1-1.8c-.5-3.2,3.4-1.6,5.5-1.8ZM1880.7,1098.3c-2.5-2.6-8.7-17.9-12.5-23.1-7.5-10.4-15.4-16.4-29.2-16.7-8.9-.2-21.9-.1-30.9,0-31.5.5-10.3,36.7-8.6,56s-2,28.8-1.7,41.7c.5,21.2,32.4,21.6,34.4,8.8s-2.2-14,2.7-20.1c4.4-5.5,21.6-6.1,26.9-1.5,7.5,6.5,6.5,19.1.8,26.5s-15,3-8,15.4c4.2,7.3,19.8,8,28,8.5,20.6,1.3,42.8-3,62.2-1.9s37.7,8.9,39.3,7.3l-11-116.9c-14.1,6.2-21-3.1-32.9-7.3-1.5,14-3.5,31.9-21.9,27.4v5.5s-7.3-3.7-7.3-3.7c.2,5.3,5.4,6.7,7.4,11.7,6.9,17.4-12.1,33.1-26.4,24.6s-9-16.8-19.4-16.3c1.1-3.5,6.1-3.2,8.2-7.4s.8-4.8,1-7.1h7.3c0,0,1.8-3.8,1.8-3.8-1-4.1-8.8-6-10.5-7.7ZM1277.2,1087.8c6.8,0,27.8-9.3,25.6-17.3-2.8-10.1-27.1,9.4-25.6,17.3ZM581.3,1109.3c2,2,19.2,7.6,22.5,4.1,4.9-5.1,8.9-36.9,2.8-41.3-7.7-3.1-21.1,7.7-24.6,14s-4.5,19.4-.6,23.2ZM1633,1154.8c1.8-2,4.5-8.6,4.3-11.2-1.5-17-46.7,4.7-55.1-5.4-5.4-6.5,9.3-23.5,6.8-32.2-.8-2.7-14.7-20.8-17.5-22.9-21.2-15.5-13.7,12.7-14.7,23.8-1.5,16.6-3.3,36.1-17.3,46.6-22.2,16.6-93.1,11.8-120.1,4.9-33.4-8.6-22.8-37.4-27.9-63.5-4.1-21.3-26.5-4.8-31.9,6.7-7.6,16.1,0,18.4,0,30.9,0,21.8-37.5,13.4-34.3,26.5,9.8,15.6,29.9,11.6,43.4,15.7s11.7,8.5,18.8,10.2c5,1.1,9.5-.9,14.5-.2,13.3,1.9,28.8,10.7,40.6,10.9s12.5-5.5,17.9-3.6,2.7,10,11.3,10.7c10,.9,11.6-5.7,15.1-7.2,3.8-1.7,17.6-5.5,21.4-5.5,11.9,0,28.6,13.2,34.6,12.8s11-7.5,17-8.7c5.6-1.2,10.4.5,16.4-1.8,10.1-3.8,25.5-18.8,35-25.3s17.1-7.2,21.6-12.2ZM840.4,1162.7c0-2,.3-3.7-.8-5.5-2.9-4.6-33.9-9.2-40.4-12.6-3.1-4,5-11.3,6.8-15.3,3.4-7.5,4.9-19.2,2.9-27.3-2-8-24.3-21.6-29.7-16s-8.1,46.9-13.3,58-31.4,17.5-46.9,15.1c-5.3-.9-9-5.5-14.5-5.3-6.6.2-18.5,7.8-27.8,8.9-13.8,1.6-32.7-.1-44.5-8.1-8.4-5.7-24.3-31.3-30.3-31.9s-17.6,1.8-19.7,2.2c-4.8,1.1-8.9,5.5-15,6-12.1,1-61.6-14.7-48.2,10.7,7.3,13.9,22.3,16.5,33.3,23.4s10.6,10.9,16,13.3c9.3,4.2,16.1-.4,24.2,1.4,6.7,1.5,19.3,12.5,26.5,15.5,31.8,13.3,57.3,7.5,85.7-6.7,6.9-3.4,43.1,3.6,53.8,2.6,8.5-.8,42.4-11.8,51.9-15.4,10.3-3.8,19.3-11.3,30.1-12.9ZM1243.9,1086.4c-15.8-8.9-14.5,18.8-16.6,25.6-3.2,10.5-21,37.9-4.1,44.5,3.1.1,6,.3,8.3-2.4,4.6-5.2,9.5-23.8,14.8-32.2s12.8-14.2,17.9-22.3c-3.2-1.8-7-.1-10.9-1.8s-8.5-10.9-9.5-11.4ZM918.2,1105.1c-4.3-3.2-6.7-6.1-12-1.8,19.6,8.5,15.6,54.3,40.2,42.1,10.4-10.6-14-25.5-20.2-31-2.7-2.3-4.8-6.9-8-9.3ZM849.1,1117.3c-2.7.3-8.5,2.7-9.7,5.1l-.9,4.5c2.3,9.8,18.5,10.7,24.7,4.6,7.2-7-6.3-15.2-14.1-14.2ZM1312.1,1131.5c15.2.2,13.8-11.6-2-8.9l2,8.9ZM326.8,1155.4l17.2,1.8,2.9-4.5-10-6.5c-1.3,7.1-11,2.6-10.1,9.2ZM922.4,1155.6c-6.7.2-10.9-4.6-17.3-5.5-9-1.3-49.8-3.3-48.4,11.6.5,5,24.5,18.4,29.4,20.1s25.9.4,28.8-1.2,8.5-11.6,8.7-12.3c.9-3.5-1.6-8.8-1.2-12.7ZM282.6,1160.5c-9.2-1-23.6-14.5-31.6-5s-11.4,35.7-17.4,46.6c-14.3,25.9-48.3,44.3-54.6,73.3s1.5,31.1-9.4,43.6-10.7,4.7-11.1,14.7,2.1,17.6,3.3,20.5c3.5,8.4,25.6,18.4,22.4,33.4h5.5c-2.8-15.5-6.3-32-2.8-47.6s9.2-27.9,23-37.3c3.5-2.4,11.8-4.5,12.8-5.9,3.8-5,10.5-41.3,14-51.4,12.6-36.7,31.3-48.5,59.4-71.7,6.7-5.5,11.7-14.2,21.5-14.6.7-7.9-4.3-.9-6.3-.8-7.8.6-19.9.8-27.4-1.1l-1.4,3.4ZM1252.9,1152.2c-20.4,4.2-14,28.3-2.2,30.6,6.6,1.3,23.9-1.2,28.4-6.2.6-.6,6.8-14.3,6.9-15.2,1.7-10.8-26-10.7-33.1-9.2ZM478.9,1220.8c-4.5-13.8,1.2-27.4-13.2-37-21.2-14.1-33.4,11.5-34.2,29.6s4.3,16.9,5.5,18.3,7.9,6.4,10.4,8.7,10.6,6.4,12.4,8.7c4.7,5.9,5.8,19,13.2,26.1s12.5,7.9,15.8,8.2c5.2.5,6.8-2.7,9-2.9s8.8,3.6,14.7,3.1,2.5-3.8,3.8-3.9c9-1.2,27.3,14.7,36.2,18.4,10,4.2,19.4.8,29.1,7.5s12.8,10.4,13.4,11.1,1.6,6.6,2.6,9.1,2.8,1.5,3.1,2.4c1.2,3.3-3,16.1-.6,21,5.2,10.4,53,9.3,64.1,9.2,48.6-.7,101.5,1.5,149.8-1.9,23.9-1.7,47.6-5.6,57-30.1-4.4-4.1-5.1-15.3-7.3-18.8s-4.7-1.7-5.8-3.9,2.5-8.5-4.3-12l7-9.2-3.5-1.7,1.7-4.7c-4,3.1-6.6-1.3-9.2-1-13.4,1.8-23,16.6-37.4,15.8-7.9-.5-15.9-13.7-21-19.4,5.8-4.1,14.2-3.2,20.2-5.4,11.4-4.2,24.4-15,38.8-11.6,4.1,1,6,5,11.3,5.3,7.2.4,19-2.6,17.1-11.6-.2-.8-6.4-12.7-6.9-13.3-7.9-8.9-47.3-3.2-58.6,0-35.7,10.6-64,16.6-100.5,23.8-49.9,9.8-88.2,7.4-138,4.4-9.6-.6-18.1,3.8-28.4-.7s-4.7-5.2-6.8-6.5c-9.3-5.5-20.8-9.6-29.6-15.6-9.9-6.7-16.2-18.7-30.8-19.4ZM1804.4,1230.3c-6.2,3.6.5,10.1,5.4,9.1,4.8-1,.4-10.7-5.4-9.1ZM1829.6,1304.7c-10.1-10.9,2.7-48.5-11-52.2s-15.7,4.9-16.9,11.7c-3.3,19.9.8,51.2-.1,73-.7,15.7-2.2,35.3-3.8,51-2.3,23.1-11.9,35.8,5.7,58.6,3.2,4.2,28.4,22.5,32.8,23.9,6.9,2.1,13.7-3.1,18.4-.2s2.3,15.7,19.4,17.3c26.2,2.4,45.1-27.1,72.7-23.5s12.8,6.7,19,3.1c14.7-47.4,9.9-98,18.5-146.6-10.7-15-11.9-31.5-17.2-46.8-9.7-27.9-27.5,12.3-35.7,15.6-15.5,6.3-35.3-7.9-42.1-3.7s-4.3,10.9-11.8,10.2c-5.1-.5-6.5-8.1-12.8-7.5s-11.7,9.6-12.9,13c-3.6,10.1,5.7,9.2,9.8,15.7s4,12,5.7,17.1c5.8-.7,11.2-5.8,17.2-5.4,5.1.3,11.8,6.7,18.7,6.7s6.9-2.5,10.9-2.9c14.4-1.4,17.9,11.2,26.2,19.4,3.8,4.5,4.4,14.1,7.3,18.1s5,.7,5.3,1c.6.7,7.2,15.6,7.5,17.1,2,12.8-5.1,26.2-19.1,26.6-11,.3-30-7.2-39.7-2-9.1,4.9-20.4,36.5-33.9,39.8-9.1,2.2-31.5-15.1-34.7-24.8-5.7-17.1,3.8-19.7,12.2-32.1-.9-5.3-19.2-8.5-13.6-28.6,1.4-5,10-13.9,9.8-17s-4.5-7.3-5.2-13.1c-1.1-9.1,3.6-19.7,2.8-25s-6.9-4.8-9.5-7.6ZM343,1258c-2.2-1.4-8-.2-10.6.7-3.8,1.4-34.6,26.2-37.4,30.2s-4.5,7.2-4.7,10.8c4.8,4.3,40.1-11.2,44.8,1.8,8.7-3.5,12.1-41,8-43.6ZM343.3,1343.6c-2.8.3-2.8,2.8-3.5,4.7-4.6,11.6-5.3,24.9-11.4,36.1s-34.6,34.6-34.5,44.2c0,19.5,26-15.6,30.7-17,15.6-4.7,36.2,18.3,33-8.1-1.1-8.8-5.2-27.5-7.3-36.6-1.8-7.8-5.7-15.3-6.9-23.3ZM200.7,1464.1c7.4-12.4,5.3-25.2.9-38.3s-10-24.2-13.7-20.1c2.2,9.4-.8,17.5.5,27.8s3,12.5,4.7,17.2,3.9,11.1,7.6,13.4ZM911.6,1502.5c-10.3,1.5-13-17.4-22.7-16.5-7.1.6-7.4,12.7-13.3,14.4-5.1,1.5-10.5-2.5-16-1.6s-7.6,7.9-11.5,8.9c-5,1.3-13.5-4.9-17.9.3-2.1,4.3-2.9,8.8-2.8,13.6s5.4,36.8,7.6,40.1c4.8,7.3,15.3,3.8,22.5,4.9,13.6,2,28.1,4.3,42,3.5,6.5-.4,12.6-6.2,18.6-7.1,8.3-1.3,18.8,1.4,26.9-.5s11.8-12.5,19.1-13.9,17.6,2.7,26.8,1.4c6.9-1,14.5-6.9,20.4-7.1s12.2,5.7,18.5,6.8c26.2,4.4,34.4-7.1,52.8-8.6s18.4,3.8,27.2,3.7c7.3,0,25.3-2.5,32.4-4.3,17.1-4.4,12.1-13.5,24.4-21.5,4.9-.4,9.8,6.7,15,8.8,21.2,8.5,26.6-5.6,39.7-5.1,8.8.3,13.3,10.3,23.8,11.2,6.1.5,11.1-2.1,16.4-2,16.1.2,30.8,2.6,47.5,0,7.1-1.1,11.2-9,19.2-10.1,8.1-1.1,20.9,5.5,26.1-6.7,3.1-7.3-1.7-47.4-6.7-52.6s-11.8-.1-17.4-2.6-6.4-14.4-13.7-19.3c-1.8-1.2-22.6-10.8-24-10.9-14.5-1.4-9.7,21.8-23.5,25.6-7.9-8.5,2.3-21.9-1.9-31-2.7-5.9-20.7-17.8-27.3-18-7.4-.3-18.3,5.6-26.5,6.2-9.5.7-14-2.6-24.8,2.6-7.1,3.4-15.8,14.7-22.2,16.1-9.5,2.2-18-1.8-27-1.6-11.4.4-30.1,8.7-38.4,16.6s-13.4,19.8-14.7,20.1c-2.7.6-11.8-18.2-16.9-20-14.4-7.2-33.8-17.9-48.1-4.7-7.4,6.8-8.1,18.8-13.6,26.6-4.9,1.2-15.6-27.9-32-24.8-7.9,1.5-15.5,9.1-24.6,8.6s-21.2-20.2-33.5-2.6,0,35.1-5.8,53.6ZM288.5,1438.6c-19.3-2.1-23.7,19.7-32.5,32.4s-14.4,17.5-20.9,26.8c-16.9,11.1-32.1,1.2-36.2-17.1-3.4-2.6-12.6,16.2-10.6,20.5,7.8,17.5,15.8,98.2,33.8,103.5,2.1.6,4.1.5,6.1-.6,13.8-25.3,16.3-56.8,26-83.7,10-27.8,30.4-51.9,34.3-81.7ZM417.8,1726.8c1.5-17.1,22.7-26.4,20.5-42.4-3.5-25.3-30.4-34.7-37-52.6-3.9-28.2-11.6-57-15.7-84.8-1.6-10.9-3-52.8-7.4-58.3s-8.1-1.7-12,1.1c-9.3,6.6-47.9,70.3-53.7,83.3-9.2,20.6-7,40-9.4,61.5,7.2,8.9,5,2.5,11.1-4.5,15.1-17.3,15.8-17,22.2-40.3,2.6-9.4,12.4-18.1,21.4-11.4,5.4,4.1,20.7,30.7,24.2,38,9.4,19.7,19.4,48.1,19.8,69.7,0,5.7-2.8,10.7-1.7,18.2s5.4,18.3,6.6,20.6c2.4,4.6,7.3,4.5,11.1,1.9ZM1419,1766.7c1.4-1.3,1.8-3.6,3.4-4.7l6.5,2.8c4.8-3.4,11.4-36.4,12-43.6,1.4-15.4-2.5-33.1,1.1-49.3,1.3-5.9,9.5-15,11.9-21,10-24.9,9.3-36.4,9.9-61.8.4-18.8,1.2-37.6,1.5-56.5s5.9-20.1-4.5-28.2c-3.2-.7-7.9,8.5-9.1,11-8.3,17-12.9,40.1-22.5,56.1-10.6,17.7-18.5,23.6-25.1,46.1-1.4,4.6,0,11.5-2.5,15.4s-5.9,2.8-8.4,4.8c-17.1,14.1-.7,31.6-5.4,47.6s-19.7,7-23.8,20.8c-4.1,13.7,11.9,18.8,12,25.7,0,5.9-11.4,10.5-16.5,10.1-.4,5.5,5,8.1,6.8,12.4,6.2,15-5.1,39.6-10.5,54.4l3.8,1.9-1.9,4.4c4.9-.5,10.3,2.1,15,1.4,32.1-4.9,27.4-32,46.4-49.6ZM648.5,1511.7c-5.3-6-5.9,16.2-5.4,19.1s2.8,4.8,3.4,7.6,5.2,35,11.1,28.1l-9.1-54.8ZM1779,1638.9c9.7-15-2.5-16.3-.8-27.3s15.3-24.2,15.3-33.2c0-10.9-15.8-14-18.5-22.7-3-9.7,6.1-32-5.3-32.9-12.2-.9-7.4,26.6-8.7,35.1-3.1,20.2-19.7,44.5-25,64.5-2.1,7.9-9.5,47.1-.8,50,8,1,14-6.7,21.8-7.1s16.2,7.3,23.3,5.2l2.8-4c-2.5-10-14.1-11.1-9-22.5,1.3-3,4.1-3.8,4.9-5ZM829.4,1783.9c2.8-23.9-14.1-37.9-22.3-57.2-6.2-14.5-8.8-32.6-14.7-47.4-10.3-25.9-25.8-50.4-38.3-75-5.2-10.2-30.9-67.3-36.2-69.8-10.3-4.8-14,12.2-12.4,19.6,2.1,10,13.9,17.8,17.4,26.6,9.7,24.5,17.1,56.6,27.2,80.6,3.7,8.7,12.5,15.4,16.1,22.2s1.9,10.9,3.9,16.2c2.4,6.4,11.3,11.9,15.1,17.8s5,14.4,8.4,20.8c8.1,15.1,20.5,27.9,27.5,43.7l8.2,1.9ZM1874.2,1642.7c4.7-3.7,13.6-19.3,19.6-25.1,15.2-14.5,33.2-18.4,41.3-41,1-2.9,4.8-12.9,1.8-14.7-10.2,4.4-21.4-3.5-30-2.7-4.4.4-9.4,4.5-14.9,5.3-9.7,1.4-20.5-.9-30.4.6s-18.5,11.2-33,8.2-15.1-11.4-22.4-5.1c-4.8,4.1,1.7,15.1,4.6,19.3,5.6,3.5,16-11.1,28.2,6.4s3.8,13.4,7,20.5c4.1,9.2,16.7,17.1,16.1,30.5,4,.4,8.9.3,12.2-2.3ZM1164.4,1634.6c-1.8,1.4-4.8,7.8-7.7,9.7-2.1,11.1,42.6,10.5,48.3,9.8,21.5-2.4,16.5-16.6,25.2-20.6,6-3,20.4,8.5,19.6-3.9-.5-8.2-8-12.3-15.6-12.2-7.5.1-23.4,1.3-30.6,2.4s-37.3,13.4-39.2,14.7ZM673.6,1634.5l-5-2.3c-1.8,17.1,6.1,31.8,9.7,47.4,8.3,35.6,29.2,113,53.3,139,2.2,2.4,4.6,5.9,8.2,5.4l-1.2-16.1c-14.4-30.6-20.9-64.4-34.4-95.3-6.9-15.6-12.2-26.1-18.1-42.2-4.4-11.9-9.3-23.7-12.4-36ZM1264.7,1744c4.4-2.6,12.6,4.4,17.5,4.8,15.3,1.4,11.1-23.2,17.9-30.7,4.5-5,14.8-3.3,18.2-7.4,4.3-5.2,5.4-26,9.2-34.7,4.8-11,26.9-26,12.8-38.4s-22.9,2.1-33,2-11-5.3-21.8-3.6-12.8,9.3-16.9,10.5c-4.8,1.4-10.5-1-15.2,1.3s-9.9,17.9-14.7,21.8c-8.1,6.6-19.3-.9-25.4,3.8s-3.3,16.6-10.9,18.3-11.3-6.8-16.1-7.9c-21-4.8-65.1,16.9-89.5,17.8-18.6.6-42.7-1.6-61.8-1.8-10.1,0-23.9-1.8-32,4.7-3.7,3-4.8,8.5-10.2,9.5-2.5-.2-10.1-12-15.4-13.4-5.6-1.5-13.5,5.7-20.6,4.4-8.6-1.5-10.7-14.7-23.7-12.2s-17,9.6-18.7,12.5c-6.2,10.6-8.9,61.1,10.5,58.1,6.3-1,10.3-9.9,14.2-11.6,13.2-5.9,15.1,25.8,18.1,33.1,7.6,18.5,35.5,3.1,41.2-10.2,28.7,36.1,45,22.5,50.3-18.3,3.1-.6,3.8.7,5,3.2,5.3,11.1,3.6,26.4,17,34.1,18.7,10.7,25.4-16.2,34-16.9,12.4,3.8,15.1,19.2,29.9,15.3,12.1-3.2,17.9-24.4,21.1-24.9,8.8-1.4,15.6,23.4,34.5,16.6,9.1-3.3,13.3-16.1,20.7-17.8,13.2-2.9,23.1,7.9,39.9-.4,8.6-4.2,9.1-14.3,13.9-21.7ZM233.2,1640c-1.2-1.4-4.2-1.8-6-2.3-1.7-.2-2.5.6-3.6,1.8-4.8,5.1-15.1,26.5-19,34.1-21.5,42.1-39.6,89.3-69.3,126.2l-35,62.7c14.1-8.3,32.4-14.1,48.2-7.1,6.8,3,11.1,10.6,18.9,12.2,14.9,3.1,30-7,44.4,6.7,6,5.7,7.2,15.8,11.5,20.5,9,10.1,40.7,1,53.3.5,41.1-1.7,82.7,2.1,123.4,0-5.8-25.8-29.4-12.4-48.5-12.6-16.3-.2-26.5-7-22.4-24.4,1.8-7.6,17.4-19.6-4.7-17.6-13.2,1.2-32.8,9.7-45.1,13.7-4.5,1.5-10.8,5-15.7,5.5s-32.9-4.3-38.5-6.2c-12.9-4.2-10.6-16.9-15.1-19.6-4.2-2.5-14.6.2-20.6-1.3s-14.3-9.9-16-11.9c-14.6-17.7,4-28.7,12.5-43.7,3.4-6,5.9-13.4,8.8-19.7l-11.6-14.1c-.4-11.2,7-18.4,17.6-20.6s7.9,4.4,8.8,4.5c15.4,2.7,10-17.7,12.8-27.1,1-3.4,3.6-6,5-9.3s-1.3-7.9,4.7-7.5l-3.6-4.5,8.2-4.6c6.2,5.6,0,1.6-.8,5.5,6.1.5,9.2,1,7.2-6.1s-5.2-.5-1.7-4.9h-5.5c2-5,.6-25.4-2.3-28.8ZM1973.4,1732.7c-4.9,1.2-1.9,10.8-.9,14.7,3.8,16.3,22.8,51.4,22.6,64.8-.1,8.1-22.6,45-30.7,47.6-12.1,3.8-43.9-11.3-55.6-17.7-28.5-15.5-35-30.9-37.5-63-1.3-16.7,5.5-56.5,15.4-70s16.7-10.9,17-19.2-11.9-39.1-23.3-31.8c-.9.6-5.6,17.5-7.2,21.1-5.2,11.5-11.7,24.1-17.7,35.3-4.1,7.8-24.9,39.3-25.6,43.6-2.2,12.8,31.6,34.9,27.5,60.6-3.3,20.5-18.7,22.6-36.7,23.6-15.7.9-31.7-3.7-47.1-1.4s-19.3,5.7-20.6,6.8c-8.4,7.2,3.9,14.6,11.5,16.1,42.7,8.4,97.4,7.2,138.6,22.3,12,4.4,17,11.9,19.1,24.4l2.5,1.6c28.5,4.2,57.2,6.5,85.7,11.1,15,2.4,42.7,11.7,55.7,11.7,12.7,0,16.4-9.1,11.1-19.9-39.4-57.8-71.9-120-103.7-182.3ZM1779.5,1701.9c-18.5.5-28.1,9.1-40.9-9.4-14.9,9,7,17.2,10.5,24.2,4.3,8.7,13,56.4,19,57.8,5.2-.4,8.7-4.9,10.3-9.5s6.2-26.3,6.5-30.2-3.9-32.1-5.4-33ZM1646.8,1940.6c-3.3-4.5-1.7-8.2,0-12.9,3.9-10.9,19.2-31.6,20.8-39.6,1.3-6.3-3.2-10.4-2.6-13.5,1-5.3,12.7-5.1,15.2-10.3s1.8-13.3,3.3-18.6c2.6-9.5,10.7-19.7,2.1-28.8s-13.4-5.6-13.6-11.9,8.5-17.2,10.5-22.4c4.8-12.9,10.9-28.8,4.5-42-13-26.7-30.2,17.4-36.2,26.7s-13.6,22.6-19.9,29.4c-9.2,9.9-26.1,12.4-25.9,28,5.6,19.6,6.9,40.2,10.8,60.1,2.8,14.1,10.9,27,8.5,42.4-1.8,11.6-16.4,20-21.6,29.6-4,7.4-1.9,15.9-13,18.1-9.9,2-35.5-18.9-44-13-3.7,2.6-2.8,14,3.5,14.1l-1.6,3.3c11.3-5.1,41.2-7.7,31.9,12.8-6.4,14.1-20,4.5-27.3,5.5-11.6,1.5-9.2,31.9-6.3,40.2,1.3-.7,3-.5,4.4-.9,12.5-4.6,47.2-26.7,56.9-36.2,14.2-13.9,24.5-18.4,40.7-29.6,5.9-4.1,22-14.9,25.8-19.9s2.4-2,1.8-4.6l-28.8-5.9ZM541.7,1973.1c-17.2,11.3-24.4,9.8-39.3-3.9-43.5-40.1-85.2-109.7-89.7-169.7-1.9-25.5,8.9-56.4-32-37.5l-7.1-20.1c-5.2-2.6-28.5-7.1-26.4,4.2s25.8,45.7,31.1,55c23.9,42.6,36.5,75.9,56.3,119.1,14,30.4,48.1,44.2,74.5,62.4,7.3,4.5,22.6,19.8,29.2,22.1,7.8,2.7,7.2-7.1,13.4-12.9s8.3-3.7,12.7-6c.6-3.2-16.1-17.1-20.7-15.6-1.3.2-1.3,2.5-2,2.9ZM580.9,1933.7c1-7.1-4.6-11.3-6.9-17.8-8.3-23.6-5.2-40.3-6-63.4s-17-15.5-27.3-23.9c-4.1-3.3-13.7-14.8-17.2-19.4-5.7-7.6-19.5-35.2-23.8-38.3-7.8-5.6-12.2.3-14.7,7.4-4.5,12.8-2.8,67.6,3.1,79.1,4,7.8,13.3,16.6,18.7,25.2,6,9.3,15.3,32.8,22.1,38.3,5,4,8.4,0,11,7.2,2.6-9,21.5-2.5,28.7.1,1.7.6,6.5,7.5,12.4,5.3ZM1244.4,1816.5c14.3,9,28,.8,41.2.4,7.1-.2,15.3,5,22.6-1.2,5.3-4.5,8.3-19.3.2-21.9-12.3-3.9-17,4.4-27,6-13.2,2.2-38.6-4-36.9,16.6ZM266.1,1799c-8.1-3.1-11.9,5.9-12.3,12.2,7-3.1,13.4.4,16.4-8.3-2.1-.4-3.8-3.9-4.1-4ZM1759.6,1802.2c-13.9,4.9-17,20-12.8,32.9,11.2,3.5,15.4-30.9,12.8-32.9ZM1482.4,1956.9c-6.9-8.1-2.7-37.6,8.6-42.4,21.1-9,21.5,16.3,34.1,16.9,3.5.1,15.4-8.3,17.1-11.3,3.7-6.6,4.2-39.3-.8-43.2-5.2-4.1-20.1-.8-26.1,1.6-9.1,3.8-12.6,11.9-20.5,16s-24.3,3.2-34.7,11c-13.4,10.1-3.9,18.5-5.7,30.8-1.4,9.8-13.1,19.1-6.2,32.1,4.3,8.2,14.1.9,20.2.2s14.8,1.1,19.7-.4c11.4-3.6-4.2-9.6-5.6-11.2ZM909.4,2120.5c-2.1-1.9-13.1-4.5-17.7-7-20-10.7-43.6-34.3-60.6-49-9.7-8.5-22.7-15-30.9-23.9-6.9-7.5-11.3-19.1-18.2-25.7-7.2-6.9-20.4-10.9-27.5-18.2-15.2-15.8-12.6-60.4-22-69.3-5.4-5.1-23.8-6.7-32.2-9.8-9.8-3.6-52-29.8-58.8-23.9-2.2,14.6,2.7,30.4,3.7,45.2,24.5-3.8,60.9-4.3,54.5,30.2l3.9,2.1-6.6,17.2c5.9,11.8,21.4,15,29.6,22.7,5.9,5.5,14.2,21.5,20.8,29.5,10.8,13.1,29.8,36,44.4,43.3,10.5,5.3,22.4,7.7,33.5,14,23.8,13.4,39.2,26.3,67.2,35.1s13.1,4.1,20.7,1.4c3.2-2.4-1.9-12.1-3.7-13.8ZM904.4,2041.5c-4.8-16.7-6.8-36.3,13.6-42.1,17.2-4.9,64.9-2.1,81.9,4.2,12.4,4.5,21.3,15.5,35.9,7.7,7.9-4.2,17.6-23.5,5.7-27.3-14.3-4.7-37.9-.2-54.1-.7-31.7-1.1-59.8-3.9-90.4-12-12.7-3.4-65.7-23.4-73.7-20.7l-3.6,3.9c-6.2,13,24.7,34.9,33.5,44.2,4.8,5.1,8.9,12.5,13.6,17.4,12.7,13.3,27.3,29.1,43.9,36.5l-2.8-12.8-3.6,1.8ZM1375.8,1953.9c-20.8-.4-16.1,18.1-19.1,31-1.3,5.8-6.4,7.7-6.5,8.3-.8,7.1,7.2,7.3,7.5,9.3.5,2.9-3.4,9.8-3.8,14.4-.6,7.3,2.2,13.1,1.7,19.8s-7.2,17.7-6.3,21.5c2.4,10.5,23.3,7.5,18.5,25.4s-7,7.5-9.5,9.8c-12.1,11.7-17,15.1-29.5,21.9s-6.9,8.5-16.2,8.5c-6.8,0-13.8-4.2-20.9-.9s-5.2,9.9-11,10.1c2.8,12.4,17.4,6.5,26.6,8.8,1.6-5.8,6.9-2.4,11.9-4.2,13.6-5.1,21.6-12.8,37.6-15.4,27.1-4.3,44.4-6.8,70.6-17.1,7.5-2.9,23.2-6.1,18.7-15.9s-16.2-2.4-23.8-1.9c-10.6.7-46.7-8.9-52.2-17.7-1.4-2.3-2.9-9.6-3.4-12.6-.8-5.3-3.3-26.8-3-30.9.8-9,12.3-27.9,13.6-36.6.7-4.7.4-33.6-1.8-35.4ZM1302,1985.7c-10.4-7.3-6.9-21.4-14.8-22.8-4.5-.8-30.2,3-35.7,4.5-14.5,4-23.9,14.2-9,25.6,5.8,4.4,16,4.9,17.8,13.3.8,3.5-4.1,27.6-5.6,32s-8.1,8.7-9.7,15.8c-2.4,10.5.4,16.5-4.7,28.2-7.3,16.7-25,16.3-30.9,36.7-4.7,16.4,11.8,18.9,24.8,17.4,17.4-1.9,11.4-10.4,16.3-22,3.4-8,14.6-15.1,16.9-20.5s4.5-20.5,4.3-22.2c-1.1-7.6-16.6-14.1-14.7-27.4.9-6.4,9.9-9.4,12.9-13.3,2.9-3.8,3.8-11.2,8.1-15.2,8.7-8.2,18.5-1.5,26.2-4.7,6.4-2.7,2.1-14.3,19.8-16.9,3.9-.6,16.3,1.4,17.2-2.9-6.7-16.7-24.9-.1-37.1-2.7s-1.4-2.4-2.1-2.8ZM1122.4,2111.5c8.3-8.3,25.7-9.3,35.1-17,2.1-17.5,6.2-34.3,4.5-52.1-4.6-12.4,1-52.8-10.2-59.2-10-5.7-48.3-2.9-55.6,4.3s-3,4.3-3.3,6c-.5,2.9,4.4,27.5,5.7,32s3.5,3.5,4.2,6-1.5,3.9-1,4.5c1,1,13.5,1.1,15.7,9.1s-2.2,17.7-3,18.3c-16.9-5.3-17.1,13.6-28.2,20.3-8.5.1-6.7-24-21.1-21.3-14.4,2.6-.5,21.1,5.5,27.6,3.5,3.8,11.6,7.4,12.9,9.5,6.3,10.1,1,32.5,19.4,32.8,13.2.2,12.7-13.9,19.5-20.7ZM1509.2,1988.7c-27.7-16.2-14,37.3-36.5,26.3s-15.1-27.8-19.7-6.9-3.7,22.9-4,28.9c-.2,4-.8,9.2,2.6,12,3.9,3.3,7.1,1.2,10.9-.4s41.2-26.1,43.1-28.1,8.3-11.9,8.4-14.6c.3-6.4-7.8-10.7-4.8-17.2ZM629.8,1996.2c-3.9-2.2-23.6,1.5-31.1.8-5-.4-10.1-3.1-14.2-3.9s-3.2.5-3.7,2.7c10.6,5.7,25.3,12.1,34.5,19.4,7.3,5.9,13.4,16.6,20.2,23.6,8.2,8.3,19.6,16.6,26.6,24.6,5.3,6,8.7,16.2,13.8,20.9,19.7,17.9,86.2,40.6,113.2,47.6,4.5,1.2,8,2.8,12.7.9l-25.8-17.1c-48.9-17.5-107.4-61.3-137.7-103.5-2.2-3-6-14.4-8.7-16ZM976.9,2105.7c-3.5,1.2-8.2,12.2-8.1,15.7.1,11.4,42.1,17.4,43.5,10.5s-25.9-29.4-35.3-26.2ZM831.2,2143.8c-2.3-5-9.9-5.4-14.6-5.4,2.5,5.6,9.4,5.8,14.6,5.4ZM1063.8,2459.4c8,7.6,25.2-2,29.2-11,8.5-19.1,12.1-45.3,19.3-64.7,9.4-25.4,31.3-61.8,44-87.6,19.6-40.1,47.7-80.8,63.9-120.6,3-7.4,10.8-24.8-4.1-16.8-13.6,7.3-19.5,24.8-26.8,29.9-9.1,6.3-25.4.4-27,18.3-.5,5.3-1.4,13.1-4,19.7s-2.2,6.6-4.2,14.6c-2,8-18.8,24.1-22.3,34.3-6.6,19.1,3.7,38.4-21.2,48.7,3.3,14.7,8.9,22.7,4.6,38.9-9.5,35.9-43,20.9-38.9-7.8,1.7-11.6,13.5-23,14.2-29.8.9-8.3-6.3-11.4-7.3-19-13.3,11.1-9.2,30.8-19.5,44-14.6-1-48.1,13.6-46.2-11.8.5-6.8,7.9-13.2,6.9-19.9s-4.5-8.3-5.7-12.7c-6.6-24.5-13.1-52.7-22.4-76.3s-7.7-12.8-10.3-19.9c-7-2.9-15,5.4-20.9,5.2s-12.5-17.6-7.7-23.3c18.4,0,5.4-20-4-21.4s-4.6,2.9-7.4.9l-1,7.3-22.7-7.2c.8,3.5-5,4.6-5.2,6.2s8.7,21,10.3,24.2c6.2,12.5,43.7,78.3,51.5,83.3,2.3,1.5,7.5,1.5,10.3,3.7,10.5,8.4,4.9,20.6,6.3,31.2,1.5,11.6,13.5,24.8,19.1,35.7,10.2,19.6,20.2,39.8,29.8,59.7s17.2,42.3,19,44ZM1120,2174.9c-3.3-.4-5.2,0-7.4,2.6s-7.8,15-7.2,15.6c4.7-2.3,9.9-3.2,10.9-9l-3.6-1.9,7.3-7.3ZM1092.6,2215.1c-4-2.3-17.7,8.4-19.1,12.9-4.3,13.3,5.8,9.3,4.5,18.1,3,1.9,10.2-13.3,11-15.5,2-5,2.7-10.3,3.6-15.6Z"/>
  <path class="st0" d="M1337.5,1270.5c1.9-.2,7.3.9,7.3-.9l-3.7-.9,5.5-1.8-5.5-1.8,5.5-1.8-3.6-3.6h10.9s-3.3-2.7-3.3-2.7l2.5-6.3c8.7,3.9,16.7-1.6,25.5-1.4,12.1.2,26,9.3,39.3,11.4,15.8,2.5,37.3,4.2,54.1,6.1,36.8,4.2,99.6,8.8,134.5-2,9.7-3,19.9-15.1,30.2-17.4s5.1,3.5,6.9-1.8l2.7,1.4c0-1.9-.1-4,.6-5.8,3.7-9.5,24.2-42.5,31.4-49.1,8.6-7.9,19.6-5.5,23.8,5.6,8.4,22.5-6.4,46.6-24.8,59.2-5.9,4.1-18.9,7.6-22.7,10-8,5.1-15.1,19.1-23.8,25.7-7.1,5.3-12.2,4.9-19.1,9.2l3.6,1.8c-8,9.7,5.3,40.1.1,48.1-1.9,3-12.4,5.4-16.2,6.2-39.2,8.2-78.9,1.5-118.2.5-54-1.4-109,3.1-162.8.2-36.7-2-67.6-8.6-106.1-7.4-61.6,2-130.3,10.9-191.8,5.6-12.3-1.1-22.7-6.3-33.7-11.1-2.9-4.1,10.2-9.4,12.7-10.1,21.5-6.2,47.6-5.6,70.9-13.1,4.3-1.4,13.5-3.7,9.8-7.5l5.2-3.1-3.6-1.8c7.3-6.3.1-8.6,0-9.5-.7-3.6.2-16.8-.8-21.7s-2.6-10.1-5.7-13.4c-3-3.1-22.6-10.5-28.1-12.2-9-2.7-17,1.2-23.5-9.3s1.3-21.7-.3-35.3l3.6,9.1v-29.2l-5.5,5.5-1.9-14.6c-14.6,2.6-4.5-15.7-5.7-21s-4.8-16.5-4.8-26c0-10.8,3.9-26.7,2.2-37.2s-10.1-23-13.6-33.6c-6.4-19.5-9.1-43,14.3-51.6s28.1-7.2,32.3-7.1,17.9,7.5,22.3,7.9,6.8-2.8,10.6-2.9,13,3.2,19.2,1.5l-3.6-3.6,15.7,1.6c3.8-5.9,26.6-3,34.3-1.7,1.4.2,1,3.1,2.1,3.4,8.9,2.3,19.9-12,29.1-12.5l1.4,3.2,3.2-1.2c-1.8,4.3,3.7,5.9,3.8,6.6.1,1.2-1.3,15.3-1.7,18-3.9,28.2-20,45.3-25.3,69.9-2,9.4-.7,20.5-2.7,30.2-.9,4-4.3,7.1-5,11.5-1.1,7.5,3.8,17.3-3.7,23.6l3.6.9-3.5,2.6c1.4,5.4,4.5,22.8,1.6,26.6l-5.4-3.6c-.2,4.6,1.5,9.7-2.7,12.7l-10.1-9.1c-2.6-.4-3.4,5-3.5,6.6-.7,10.2,4.5,18.1,3.6,28.1l3.6-6.4c-.5,7.7.8,16-.2,23.6-.6,5-5.6,14.5-5.3,18.2s5.6,2.3,3.7,6.6l5.4-3.7v7.3s3.7-3.6,3.7-3.6l-1.8,16.4,3.6-1.8c.3,4.7,1.7,6.4,5.6,8.4-2.7,4.5-1.6,6.3,2.3,9.2s1,0,3.6,1.8c26.9,19.1,43.3,12.8,73.4,17.2,3.1.5,4.6,3.5,9,3.6s23.1-7.8,26.3-11.4c3.4-3.8,2.3-6,7-8.2l2.7,1.4v-7.3s6.3,2,6.3,2c1.9-6.5,3.4-1.3,6.2-2.3s4.5-5.3,4.6-5.7c1.1-2.9-1.4-20.2-2.5-23.8-.2-.6-4.1-9.7-5-8.9l1.2-4.9-3.4-.3,3.6-5.4-3.6-1.8c11.1-5.4,21.3-.9,32.9,0l-1.6-3.3c8-6.1,17.3-4.7,23.5,3.3l-14.6,2.8,10.9,6.4-3.7,2.7,3.7,2.7-3.6,1.8c6-.4,3.8,5,5.4,6.4,1.5,1.3,4.6,2.4,7.4,4.6-2.1.2-5.9-1.3-5.5,1.8l9.1,1.8c.3-1.8-2.1-2.4-3.6-3.6ZM1043.2,1204.7c3.2-8,7.3-18-1.8-23.7.1,5.8-.2,11.6,0,17.4,0,2.2-1.4,6.8,1.8,6.4ZM1050.6,1188.3l-1.8-7.3v20.1c6.9-3.6,3.4-1,7.3,1.8-1-6.9,3.1-18.3-3.6-21.9l-1.8,7.3ZM1059.7,1201.1c0-4.5.2-9.2,0-13.7s1.4-6.8-1.8-6.4c0,4.5-.2,9.2,0,13.7s-1.4,6.8,1.8,6.4ZM1039.6,1197.4v-10.9h-1.8v10.9h1.8Z"/>
  <path class="st0" d="M1261.4,506.2c14.3,15,62.3,30.9,78,12.6,12.8-15.1-5-32,1.8-48.5,5.1.5,9.1,4.3,14.1,5.1,29.4,4.7,27.3-36.9-1.9-30.3s-9.4,10.4-16.6,8.9c-7.7-1.6,1.9-33.7,4.6-39.1,5.8-11.5,19.1-16.6,25.3-27.8l74.5,26.2c10.4,11.4,24.7,14.6,37.2,21.3,35,18.9,69.2,39.6,104.2,58.4,1.5,2,3.8,25.3,3.6,29.4-.3,7.8-5.3,16.1-5.2,23.7,0,24.2,32.7,83.6,60.9,83.2s19.8-18.2,20.6-28.9c.6-8.2-2.6-16.4-1-26.4.5-3,5.5-17.6,7.8-17.7,6.8,6.9,21.7,13.4,27.3,20.2s17.7,30,13,36.5c-1.2,1.6-19.3,4.5-22.5,4.9-5,.6-10.1-3.6-15.1,3.1-4.6,6.2-.2,27.5,3.9,32.8s12.8,5.9,14.3,15.5c-4.4-.6-2.6,4.8-4.7,5.7-10,4.4-30.7-2.9-35.7,0l-3.1,6.5,21.7,32.9,21.2,6.2,1.8,18.3c-36.7,33.1-39.6-20.5-61.3-39.2l-88.8-57.4c-13.8-18.7,15.5-54.9,15.3-76s-5.4-22.4-7.2-25.4c-2.4-4.1-8.3-6.2-11.7-10.2-5.3-6.2-5.3-12.8-13-18s-32.4-11-41.3-9c-12.8,2.8-7.9,18.3-13.2,27-2.6-3.5-8-8.5-9.8-12.1-9.2-18.4,22.6-24.7,1.6-43.7s-13-10.2-14.6-11c-9-4.9-13.5,1.4-22.7-.7-2.6,7.2-9.3.2-15.8,1.7l1.9-3.6c-7.6,1.7-23-.7-27.5,6.3-7.1,11.1,10.1,13.3,16.4,17.7l-1.6,5.1c11.6,2.9,10.7,13.5,14.8,21s20.2,25,24.4,28.6c9,7.9,19,6.1,29.1,1.9l2,1.7c3.9,15.6,6.3,32,4.3,48.2-.9,7.7-2.4,14.8-11.5,13.9s-45.6-26.1-58.3-31.4c-30.8-12.8-60.6-13.1-93-18.5-28-4.7-55.6-12.3-83.6-16.9-7.9-13.8-19.5-23.1-29.3-34.7s-13.1-20.7-24-29c-6.2-4.8-15.5-7.3-19.7-13.2s-7.7-15.8-7.8-18c0-6.2,9.9-11.3,11.1-20.3.5-3.7-1.1-19.4-1.9-23.5-2.7-14.9-30.8-18.9-34.2-3.4s6.1,19-15.4,24.8c-11,3-32.9,2.9-42.9-2-7.9-3.8-25-30.8-24-39.3,1.8-14,27.3-4.3,36.1-8.7,2.1-10.9-9.1-14.3-12.7-22.7,4.1-6.9,7.5-32,15.6-33.8s14,26.4,19.1,31.9,16.1,6.9,14.6,16.3c-.8,4.9-9.3,11.2,1.7,14.8s60.8,1.9,70.5.8c7.1-.8,13.6-5.3,20.2-5.6,6.2-.3,11.3,2.5,18,1.8,33.7-3.4,13.5-39.2-10.7-34.6s-7.4,9-13.7,9.1c-2.4-10.9-6.5-22.7-7.3-33.8-.8-11.4,3-25.5,1.7-34.6-3.1-20.8-29.1-40.4-27.4-73.2.5-8.6,3.8-4.5,7.1.3,31.6,46,56.7,102.9,87.7,149.9-2.9,9.7,0,20.5-2.3,29.8-2.5,9.7-16.3,17-19.8,31.3-4.4,17.7,6.8,15.9,10.3,27.4,6.4,20.8-3.2,40.6,14.6,59.4ZM1171.7,425.9c9.9,12.3,29.9-.7,24.3-16-10.9-7.9-35.7,1.9-24.3,16ZM1643.6,648.1c-5.3,0-9.2,5.8-3.4,10.1,8.9,6.5,13.8-10,3.4-10.1Z"/>
  <path class="st0" d="M911.6,1502.5c5.8-18.5-6.4-36,5.8-53.6s22.6,1.9,33.5,2.6,16.7-7.1,24.6-8.6c16.4-3.1,27.1,26,32,24.8,5.6-7.8,6.2-19.7,13.6-26.6,14.3-13.2,33.7-2.5,48.1,4.7,5.1,1.9,14.1,20.6,16.9,20s11.3-16.8,14.7-20.1c8.2-7.9,26.9-16.2,38.4-16.6,9.1-.3,17.6,3.7,27,1.6,6.4-1.5,15.1-12.8,22.2-16.1,10.9-5.2,15.4-1.8,24.8-2.6,8.2-.6,19.1-6.5,26.5-6.2,6.5.2,24.6,12.2,27.3,18,4.2,9.1-6,22.6,1.9,31,13.8-3.8,9.1-26.9,23.5-25.6s22.1,9.7,24,10.9c7.3,4.9,8.2,16.8,13.7,19.3s11.1-3.9,17.4,2.6,9.8,45.3,6.7,52.6c-5.2,12.3-18,5.7-26.1,6.7-8,1-12.1,9-19.2,10.1-16.7,2.6-31.4.2-47.5,0s-10.3,2.5-16.4,2c-10.5-.9-15-10.8-23.8-11.2-13-.5-18.4,13.7-39.7,5.1-5.2-2.1-10.1-9.2-15-8.8-12.2,8-7.2,17.1-24.4,21.5-7.1,1.8-25.1,4.3-32.4,4.3-8.8,0-18.8-4.5-27.2-3.7-18.4,1.5-26.6,13-52.8,8.6-6.4-1.1-12.8-7-18.5-6.8s-13.5,6.1-20.4,7.1c-9.2,1.3-20.5-2.6-26.8-1.4s-11.5,12.2-19.1,13.9-18.6-.8-26.9.5c-6,.9-12.1,6.7-18.6,7.1-13.9.8-28.3-1.4-42-3.5s-17.7,2.4-22.5-4.9-7.4-34.6-7.6-40.1.7-9.3,2.8-13.6c4.4-5.1,12.9,1.1,17.9-.3,3.9-1,6-8,11.5-8.9s10.9,3.1,16,1.6c5.9-1.7,6.1-13.8,13.3-14.4,9.7-.9,12.4,18.1,22.7,16.5Z"/>
  <path class="st0" d="M1264.7,1744c-4.8,7.4-5.3,17.5-13.9,21.7-16.8,8.3-26.7-2.6-39.9.4s-11.5,14.5-20.7,17.8c-18.8,6.8-25.7-18-34.5-16.6-3.2.5-9,21.7-21.1,24.9-14.8,3.9-17.5-11.5-29.9-15.3-8.6.7-15.3,27.5-34,16.9-13.5-7.7-11.7-23.1-17-34.1-1.2-2.5-2-3.8-5-3.2-5.3,40.8-21.5,54.3-50.3,18.3-5.7,13.3-33.7,28.7-41.2,10.2s-4.8-39-18.1-33.1c-3.9,1.7-7.8,10.7-14.2,11.6-19.4,3-16.7-47.5-10.5-58.1,1.7-2.9,15.1-11.8,18.7-12.5,13-2.5,15.2,10.6,23.7,12.2,7.1,1.3,15.1-6,20.6-4.4,5.3,1.5,13,13.2,15.4,13.4,5.4-1,6.5-6.6,10.2-9.5,8.1-6.5,21.9-4.8,32-4.7,19.1.2,43.1,2.4,61.8,1.8,24.4-.8,68.4-22.6,89.5-17.8,4.8,1.1,11.5,8.9,16.1,7.9,7.6-1.7,5.5-14.1,10.9-18.3s17.2,2.8,25.4-3.8c4.8-3.9,10.9-20,14.7-21.8s10.4.1,15.2-1.3c4.2-1.2,8.1-9.1,16.9-10.5s15,3.5,21.8,3.6c10.1.1,21.7-12,33-2s-8,27.4-12.8,38.4c-3.8,8.7-4.8,29.5-9.2,34.7-3.4,4.1-13.7,2.4-18.2,7.4-6.8,7.5-2.6,32.1-17.9,30.7-4.9-.5-13.1-7.4-17.5-4.8Z"/>
  <path class="st0" d="M478.9,1220.8c14.7.7,20.9,12.7,30.8,19.4,8.8,6,20.3,10.1,29.6,15.6s2.1,4.4,6.8,6.5c10.3,4.6,18.8.2,28.4.7,49.8,3,88.2,5.4,138-4.4,36.5-7.2,64.8-13.2,100.5-23.8,11.2-3.3,50.7-9,58.6,0s6.8,12.5,6.9,13.3c1.9,9-9.9,12-17.1,11.6-5.3-.3-7.2-4.3-11.3-5.3-14.4-3.4-27.4,7.4-38.8,11.6-6,2.2-14.4,1.3-20.2,5.4,5.1,5.7,13.1,18.9,21,19.4,14.4.9,24.1-14,37.4-15.8,2.6-.3,5.2,4.1,9.2,1l-1.7,4.7,3.5,1.7-7,9.2c6.8,3.5,3.3,9.8,4.3,12s5.1,2.8,5.8,3.9c2.2,3.5,2.9,14.7,7.3,18.8-9.4,24.5-33.1,28.4-57,30.1-48.3,3.4-101.2,1.2-149.8,1.9-11.1.2-58.9,1.2-64.1-9.2-2.4-4.8,1.8-17.7.6-21s-2.5-1.1-3.1-2.4c-1-2.5-2.3-8.7-2.6-9.1-.6-.7-12.2-10.3-13.4-11.1-9.7-6.7-19.1-3.3-29.1-7.5-9-3.8-27.2-19.6-36.2-18.4s-.3,3.6-3.8,3.9c-5.8.5-11.8-3.4-14.7-3.1s-3.8,3.4-9,2.9-13.2-5.7-15.8-8.2c-7.5-7-8.6-20.2-13.2-26.1s-9.3-5.9-12.4-8.7-9.9-8.2-10.4-8.7c-1.2-1.4-5.6-15.6-5.5-18.3.9-18.1,13-43.7,34.2-29.6,14.4,9.6,8.7,23.2,13.2,37Z"/>
  <path class="st0" d="M1383.2,826.5c-5.4,0-8.7,3.9-13.8,5.4-16.4,4.8-34.8,1.6-49.5,15.3-5.1,4.7-8.4,14.4-15.4,18.4s-16.4,3.1-23.5,7.5c-14.2,8.8-20.8,33.4-30.4,46.4l-46,32.6c-2.8,3.2-11.1-2.8-11.1-4.1s1.7-3.4,1.6-5.5c-1-11.1-2.3-22.9,0-33.9l3.6,3.6c5.1-13.9-7.3-22.9-20.1-21.9l1.8,5.5c-2.8-1.7-7.4.2-6.6,3.8l7.5,9,3.6-5.4c5.9,0,9.7,15.9,3.7,14.5s-3.5-4.8-6.4-5.4l-2.8,7.3-9.1-14.7-11.9-1.7c4.8,9.7,18.7,22.9,5.5,31-.7-10.4,3.8-21-8.1-25.7-6.7-2.7-14.6-3.6-21.1-7.3l1.5-3.3-3.3-2,7.3-3.6-10.9-5.5,9.1-.9c-6.4-5.6-16.1-3.6-23.7-2.7l3.6,3.6c-13.2-2.7-14.2,4.1-21.9,11.9l7.3,3.6-7.3,4.6,3.6,5.4c-5.5,3-9.3,6.3-16.4,5.5l1.8,3.6-30,5.6-1.1-3.8-6.4,3.7-1.8-3.8-6.4,3.7-.9-3.6-5.5,3.7-3.7-7.3c-3.8,1.6-3.8,7.5-5.1,8.7s-3.9-.3-5,1.6c-2.3,4.2,1.2,11.6-7.3,9.8,3.2,4.6-4.3,21.3-7.6,23.4s-3.3-1.1-5.2-.7-5.9,3-8.1,2.9-4.6-7.2-10.2-5.6c4.3-9.2-2.4-24.2-11-28.2s-16.2,4.1-23.9,1.6-4.8-3.8-8.1-4.4c-7.4-1.3-16.8,2.4-23.4,1.7-17.8-2-27-31-38.5-42-7-6.6-11.5-5.6-18.1-9.3s-20.4-17-21.4-18.8c-2.8-5-5-28-1.6-32.8s9-2.9,13.9-1.8,3-1,3.9-.6c8.9,3.8,12.5,10.3,27.5,11.4,14.1,1,28.8,1.1,42.9,3.4,19,3,41.2,9,60.6,10.4,8.2.6,17.2-.5,25.6-.2l2,5.7h26.4c0-.1-20.1,3.5-20.1,3.5,12.2-1.3,27.6,1.8,39.4.1,19.9-2.8,52.6-6.6,72.7-1.9s1.1,3.5,2,3.4c12.5-.6,25.6-6.1,38.5-7.1,4.9-.4,25.2,2.3,26.3,1.5s.5-3.4,3.3-4.8c15-7.4,34.8-1.2,48.7-4,1-.2,13.6-9.3,17-10.8,23.2-9.7,44.2-6.6,67.5-10.3,15.9-2.6,36.9-13.5,50.2,1Z"/>
  <path class="st0" d="M2053.4,599.5c-6,6-15.1-1-20.7-1.3-19-1-23.1,18.4-33,25.2s-23.9,8.8-29.2,9.2c-13.5,1.1-8.7-8.5-16.5-16.4-10.4-.7-11.4,8.2-9,16.7s6.7,4.2,8,8.4c3.6,11.8-5.4,41.2,22.9,24s26.9-22.2,39.8-33.3,35.4-29.5,28.6-4.3c-1.1,4.2-22.6,31.2-27,36.9-9.9,12.6-24.9,26.4-33.6,39.4-28.2,42.2-51.8,92.1-81.8,133.8-19.8,27.5-19,8.9-30.4-10.9-6.9-11.9-22-31.8-26.3-43.1-5-13,7.3-11,16-15.9,10.2-5.7,17.2-15.4,28.2-18.5l-1.6-3.4c12.2,2.9,39-47.5,36.5-49.5h-5.5c4.3-5.5-7-7.2-9.4-9.9s.8-7.3-6.8-11.8c-8-4.7-12.8-3.4-20-5.2-32.2-8-66.1-9.7-99.5-15.6s-11.7-2.8-17.4-5.5c-3.6-3.2,1-12.1.7-16.6-.4-7.2-8.1-12-6.7-19.4l74.9-5.5c-6.7,22.8,12.6,23.4,30.2,22s67.4-16.2,74.3-20.2c3.6-2.1,5.8-10.6,10-12.4l101-16c5.3,3.4,7.7,14.3,3.2,18.8Z"/>
  <path class="st0" d="M821.7,375.9c.5.1.5,2,.9,2.2,1.6.8,5.9-1.4,5,4.4-18.2,7.4-13.3,20.3-9.3,35.4-7.9,9.7-21,8.6-15.3,24.9s6,7,7.4,12.7c2.3,9.1.9,30.8,11.8,35.8,7.3,3.4,16-5.8,22.4-8.6s11.3-2.3,16.6-5.4c5-2.9,13.9-12.5,15.8-18,5.6,2.7,6.3,9.8,12.3,12.3s17,5.8,18,5.9c5,.5,13-2.7,12.9-8.2s-9.8-9.4-5-20.1c5.2-11.7,21.7-14,15.2-29.7-2-4.7-9-7.9-10.6-13.1s0-9.4-1.2-13.5-7.4-5.2-4.9-12.9l4.3-3c2,.1,3.6,1.2,5.3,2.1,2.7,1.4,35.5,39.1,38.5,43.7,12.9,19.6,20.5,67.8,48.1,72.5,10.6,1.8,26.6-.2,36.4-4.7,11.6-5.3,19.3-20.1,33.1-21.9s37.3,2.1,43.9,4.5,4.1,1.4,5.9,3.2c3.6,3.7,5.3,23,5.5,29.2.2,7,1.7,23.7-6.8,26.2s-50-3.9-59.9-5.2c-4.4-.6-7.1-3.9-12.8-3.7s-12.4,6.5-20.1,7.5c-23.6,3-73.8,5.7-96.9,3.6-24.7-2.3-34.3-22.5-54.7-19.9-4.4.6-8.1,3.1-12.9,3.5-19.2,1.7-25.5-17.1-43.5-22.4-14.8-4.3-24.1,2.7-36-13.3-4.6-6.2-5.6-14.7-11.2-19.9-5.2-4.8-18.5-7.9-26-12.4s-16.3-10.8-20.4-14.3-8.6-10.9-10.1-11.9c-7.9-4.8-24.3,8.8-32.9-1.8,0-1.9,25.7-15.9,29.8-17.7,4.8-2,25.6-9,29.6-8.9,9,0,7.2,11.7,13.7,15.6,18.1,10.6,38.6-10.9,35-29.7,6.6-3.8,15.2-7.5,22.9-5.2ZM962.6,461.4c-2.2-3.5-16.2-1.9-14.2,5.8,2.5,9.8,20.5,4.3,14.2-5.8Z"/>
  <path class="st0" d="M1973.4,1732.7c31.8,62.3,64.3,124.4,103.7,182.3,5.4,10.8,1.6,20-11.1,19.9-13,0-40.7-9.3-55.7-11.7-28.4-4.6-57.2-6.9-85.7-11.1l-2.5-1.6c-2.1-12.5-7.1-20-19.1-24.4-41.1-15-95.8-13.9-138.6-22.3-7.5-1.5-19.8-8.9-11.5-16.1,1.3-1.1,18.2-6.4,20.6-6.8,15.4-2.3,31.4,2.3,47.1,1.4,18-1,33.4-3.1,36.7-23.6,4.1-25.7-29.7-47.7-27.5-60.6.8-4.4,21.5-35.9,25.6-43.6,5.9-11.2,12.5-23.8,17.7-35.3s6.3-20.5,7.2-21.1c11.4-7.3,23.6,24.1,23.3,31.8s-12.2,12.7-17,19.2c-10,13.5-16.7,53.3-15.4,70,2.4,32.2,8.9,47.6,37.5,63,11.7,6.3,43.5,21.4,55.6,17.7,8.1-2.5,30.6-39.5,30.7-47.6.2-13.4-18.8-48.6-22.6-64.8-.9-3.9-4-13.4.9-14.7Z"/>
  <path class="st0" d="M1829.6,1304.7c2.6,2.8,8.8,2.9,9.5,7.6s-3.8,15.9-2.8,25c.7,5.8,4.9,10.1,5.2,13.1s-8.4,12-9.8,17c-5.6,20.1,12.7,23.3,13.6,28.6-8.4,12.4-17.8,15-12.2,32.1,3.2,9.7,25.6,27.1,34.7,24.8,13.5-3.3,24.7-34.9,33.9-39.8,9.7-5.2,28.7,2.3,39.7,2,14-.4,21.1-13.7,19.1-26.6-.2-1.6-6.9-16.4-7.5-17.1s-3.4,1.5-5.3-1c-2.8-3.9-3.5-13.5-7.3-18.1-8.4-8.2-11.8-20.8-26.2-19.4s-7.1,2.9-10.9,2.9c-6.9,0-13.6-6.3-18.7-6.7-6.1-.4-11.4,4.8-17.2,5.4-1.7-5.1-2.9-12.7-5.7-17.1-4.1-6.5-13.4-5.6-9.8-15.7,1.2-3.3,9.2-12.6,12.9-13,6.3-.6,7.7,7,12.8,7.5,7.5.7,8.5-8.1,11.8-10.2,6.8-4.2,26.6,10,42.1,3.7,8.1-3.3,26-43.5,35.7-15.6s6.5,31.8,17.2,46.8c-8.6,48.7-3.8,99.3-18.5,146.6-6.2,3.5-12.4-2.3-19-3.1-27.6-3.6-46.5,25.9-72.7,23.5-17.1-1.6-14-14-19.4-17.3s-11.4,2.3-18.4.2c-4.5-1.4-29.6-19.7-32.8-23.9-17.6-22.9-8-35.5-5.7-58.6,1.6-15.7,3.2-35.3,3.8-51,.9-21.7-3.1-53.1.1-73,1.1-6.8,10.2-13.6,16.9-11.7,13.7,3.7.9,41.3,11,52.2Z"/>
  <path class="st0" d="M1738.4,835c5.2,4.7,55.9,31.3,62.9,33.1,8,2,18.7,1.1,26.5,2.7,12.6,2.6,21,14.5,34.7,8.3,5.2-2.4,9.9-10.4,16.5-8.5s14,20.6,18.6,25.4c7.5,7.8,26,14.9,26.7,26.5.3,6.1-3.3,10.8-.8,16.9,1.7,4.1,12.6,7.2,14.7,10.1s6.2,22,6.1,24.2c-.1,4.9-6.3,11.6-8,17.6-1.9,6.8-1.2,12.4-4,19.7s-9.9,13.2-10,15.5c-.1,4.8,17.3,36.9,12.8,41.2-13.6-3.4-11.8,12.8-24.5,11s-19.4-14.2-22-18.3c-7.3-11.7-2.1-21.1-2.9-33.7-1-17.1-9.3-55.5-24.9-64.6-19.3-11.2-22.2,2.2-34.9,4.8s-13.9-2-18.8-.7-13.2,17-20.1,9.4c-4.3-4.7-5.3-15.3-9.4-21.7-10-15.8-20.3-15.6-21.2-41-.6-16.1,15.9-12.1,16-16-4.1-4.5-10.8-3.6-15.9-6-11-5.2-23.1-23.9-29.4-34.5-4.5-7.6-17.4-28.1-14.7-35.9,10.1-10.2,19.9,9.2,26,14.6ZM1809,901.4c2.6,0,4.9.6,6.4-1.8l.8-7.4c-4.4,1.8-8.6,3.7-7.3,9.1ZM1884.1,907.1c-2.3,5-1.3,10.8-3.4,15.8-3.9,9.4-18.4,10.4-6,25.2,3.6,4.2,10,6.2,12.6,11.2,3.4,6.4,3.8,24.4,17.2,22.3,16.1-2.5,5.3-21,5-28.2s3-7.1,3.6-10.9c1.4-10.1-4.3-9.5-8.1-15.5-5.4-8.6-8.1-21.9-21-19.8Z"/>
  <path class="st0" d="M1063.8,2459.4c-1.8-1.7-15.8-37.6-19-44-9.7-19.9-19.6-40.1-29.8-59.7s-17.6-24.1-19.1-35.7c-1.4-10.6,4.2-22.8-6.3-31.2s-8-2.3-10.3-3.7c-7.8-5-45.3-70.8-51.5-83.3-1.6-3.2-10.5-22.9-10.3-24.2s6-2.7,5.2-6.2l22.7,7.2,1-7.3c2.7,2,4.9-1.3,7.4-.9,9.4,1.4,22.4,21.3,4,21.4-4.8,5.7,1.5,23.1,7.7,23.3s13.9-8,20.9-5.2c2.6,7.1,7.5,12.8,10.3,19.9,9.3,23.6,15.8,51.7,22.4,76.3,1.2,4.4,5.2,9.6,5.7,12.7.9,6.7-6.4,13.1-6.9,19.9-1.9,25.4,31.6,10.8,46.2,11.8,10.3-13.2,6.2-32.9,19.5-44,1,7.6,8.2,10.8,7.3,19-.7,6.8-12.5,18.2-14.2,29.8-4.1,28.7,29.3,43.6,38.9,7.8,4.3-16.3-1.4-24.2-4.6-38.9,24.9-10.3,14.6-29.7,21.2-48.7s20.4-26.3,22.3-34.3c2-8,1.5-7.9,4.2-14.6s3.5-14.4,4-19.7c1.6-17.9,18-12,27-18.3,7.2-5,13.2-22.6,26.8-29.9,14.8-7.9,7.1,9.5,4.1,16.8-16.3,39.8-44.3,80.6-63.9,120.6-12.7,25.8-34.6,62.2-44,87.6-7.2,19.5-10.9,45.6-19.3,64.7s-21.2,18.5-29.2,11Z"/>
  <path class="st0" d="M1880.7,1098.3c1.7,1.7,9.5,3.7,10.5,7.7l-1.8,3.7h-7.3c-.2,2.5,0,5-1,7.2-2,4.2-7,3.8-8.2,7.4,10.4-.6,11.5,11.6,19.4,16.3,14.3,8.4,33.4-7.2,26.4-24.6-2-5.1-7.2-6.4-7.4-11.7l7.3,3.7v-5.5c18.4,4.5,20.4-13.4,22-27.4,11.9,4.2,18.8,13.5,32.9,7.3l11,116.9c-1.6,1.6-33.2-6.9-39.3-7.3-19.4-1.1-41.6,3.2-62.2,1.9-8.2-.5-23.9-1.2-28-8.5-7.1-12.4,2.9-8.7,8-15.4s6.7-20-.8-26.5c-5.3-4.6-22.5-4.1-26.9,1.5-4.9,6.1-1.7,13.8-2.7,20.1-2,12.8-33.9,12.4-34.4-8.8s3-27,1.7-41.7-22.9-55.5,8.6-56c9-.1,22-.2,30.9,0,13.8.3,21.7,6.3,29.2,16.7,3.8,5.3,10,20.6,12.5,23.1ZM1859.7,1086.5c-7.4-6.8-22.4,8.1-30.7,9.9-3.4,5.1,1.1,16.2.3,23.6-.7,5.5-5.5,8.4-1.7,15.2,11,4,7.9-5.8,13.2-8.2s14.8-2.4,18.5-8.1,5.4-27.8.6-32.3Z"/>
  <path class="st0" d="M1419,1766.7c-19.1,17.6-14.3,44.6-46.4,49.6-4.7.7-10.2-1.8-15-1.4l1.9-4.4-3.8-1.9c5.4-14.8,16.7-39.4,10.5-54.4-1.8-4.3-7.2-6.9-6.8-12.4,5.1.4,16.6-4.2,16.5-10.1,0-6.9-16.1-12-12-25.7,4.2-13.8,19.6-6.2,23.8-20.8s-11.7-33.5,5.4-47.6c2.5-2.1,7.2-3,8.4-4.8,2.4-3.8,1.1-10.7,2.5-15.4,6.6-22.5,14.6-28.4,25.1-46.1,9.6-16,14.2-39,22.5-56.1,1.2-2.4,5.9-11.7,9.1-11,10.4,8.1,4.7,18.5,4.5,28.2-.3,18.9-1.1,37.7-1.5,56.5-.6,25.4.1,36.9-9.9,61.8-2.4,6-10.6,15.1-11.9,21-3.6,16.2.3,33.9-1.1,49.3-.7,7.2-7.2,40.2-12,43.6l-6.5-2.8c-1.7,1.2-2,3.4-3.4,4.7Z"/>
  <path class="st0" d="M233.2,1640c2.8,3.4,4.2,23.7,2.3,28.7h5.5c-3.5,4.4,1.3,3.3,1.7,4.9,2,7-1.2,6.6-7.2,6.1.8-3.9,7,.1.8-5.5l-8.2,4.6,3.6,4.5c-6-.4-3.5,4.7-4.7,7.5s-4,5.8-5,9.3c-2.7,9.4,2.6,29.9-12.8,27.1-.9-.2-2.2-5.9-8.8-4.5-10.6,2.2-18,9.4-17.6,20.6l11.6,14.1c-2.8,6.3-5.4,13.8-8.8,19.7-8.4,15-27.1,26-12.5,43.7s13.8,11.3,16,11.9c6,1.5,16.4-1.2,20.6,1.3,4.5,2.7,2.2,15.5,15.1,19.6s33,6.7,38.5,6.2,11.1-4,15.7-5.5c12.3-4,31.9-12.5,45.1-13.7,22.2-2,6.5,9.9,4.7,17.6-4,17.4,6.2,24.3,22.4,24.4,19,.2,42.7-13.2,48.5,12.6-40.7,2-82.4-1.8-123.4,0-12.6.5-44.2,9.6-53.3-.5-4.2-4.7-5.5-14.9-11.5-20.5-14.5-13.7-29.6-3.6-44.4-6.7-7.8-1.6-12.1-9.2-18.9-12.2-15.8-6.9-34.1-1.2-48.2,7.1l35-62.7c29.7-36.9,47.8-84.1,69.3-126.2s14.2-28.9,19-34.1,1.9-1.9,3.6-1.8c1.8.4,4.9.9,6,2.3Z"/>
  <path class="st0" d="M1646.8,1940.6l28.8,5.9c.6,2.6-.5,3-1.8,4.6-3.8,5-19.9,15.8-25.8,19.9-16.2,11.3-26.5,15.8-40.7,29.6s-44.4,31.6-56.9,36.2c-1.3.5-3,.2-4.4.9-2.9-8.2-5.3-38.7,6.3-40.2s20.9,8.6,27.3-5.5c9.2-20.5-20.6-17.8-31.9-12.8l1.6-3.3c-6.3-.1-7.2-11.5-3.5-14.1,8.5-5.9,34.1,15.1,44,13,11.1-2.3,9-10.8,13-18.1,5.2-9.6,19.8-18,21.6-29.6,2.4-15.4-5.8-28.2-8.5-42.4-3.9-19.9-5.2-40.5-10.8-60.1-.2-15.6,16.7-18.1,25.9-28,6.3-6.8,14.6-21.1,19.9-29.4s23.2-53.5,36.2-26.7c6.4,13.2.3,29.1-4.5,42-2,5.2-10.6,18.8-10.5,22.4.1,6.3,10.2,8.4,13.6,11.9,8.6,9.1.5,19.3-2.1,28.8-1.5,5.4-1.4,14.7-3.3,18.6s-14.2,5-15.2,10.3,3.9,7.3,2.6,13.5c-1.6,8-17,28.7-20.8,39.6-1.7,4.7-3.3,8.4,0,12.9ZM1644.9,1816.3c6.1,5.8,18-1.9,15.2-8.6-5.6-13.4-22.5,1.7-15.2,8.6Z"/>
  <path class="st0" d="M1633,1154.8c-4.6,5-16.2,8.4-21.6,12.2-9.4,6.5-24.9,21.6-35,25.3s-10.8.7-16.4,1.8c-6,1.2-11.6,8.4-17,8.7s-22.7-12.8-34.6-12.8c-3.9,0-17.6,3.8-21.4,5.5-3.4,1.5-5.1,8.1-15.1,7.2-8.5-.8-8.5-9.7-11.3-10.7-5.4-2-11.5,3.7-17.9,3.6-11.8-.2-27.3-9-40.6-10.9-5.1-.7-9.6,1.3-14.5.2-7.1-1.6-11.9-8.1-18.8-10.2-13.6-4.1-33.6-.1-43.4-15.7-3.2-13.2,34.3-4.7,34.3-26.5,0-12.5-7.5-14.7,0-30.9,5.4-11.5,27.8-28,31.9-6.7,5,26.2-5.5,55,27.9,63.5,26.9,6.9,97.9,11.6,120.1-4.9,14.1-10.5,15.8-30,17.3-46.6,1-11.1-6.5-39.3,14.7-23.8,2.8,2,16.7,20.2,17.5,22.9,2.5,8.6-12.2,25.6-6.8,32.2,8.4,10.1,53.6-11.6,55.1,5.4.2,2.7-2.5,9.3-4.3,11.2Z"/>
  <path class="st0" d="M840.4,1162.7c-10.8,1.6-19.8,9.1-30.1,12.9-9.5,3.5-43.4,14.6-51.9,15.4-10.7,1-46.9-6.1-53.8-2.6-28.4,14.3-53.9,20.1-85.7,6.7-7.3-3-19.8-14-26.5-15.5-8.1-1.8-14.9,2.8-24.2-1.4-5.3-2.4-11-10.2-16-13.3-11-6.8-26-9.5-33.3-23.4-13.3-25.4,36.1-9.8,48.2-10.7,6-.5,10.1-4.9,15-6s18.2-2.4,19.7-2.2c6.1.6,21.9,26.2,30.3,31.9,11.8,8,30.6,9.8,44.5,8.1,9.3-1.1,21.2-8.6,27.8-8.9,5.6-.2,9.2,4.5,14.5,5.3,15.5,2.5,39.5.6,46.9-15.1s11-55.6,13.3-58c5.4-5.6,27.7,8,29.7,16,2,8.1.6,19.7-2.9,27.3s-10,11.3-6.8,15.3c6.5,3.4,37.5,7.9,40.4,12.6s.9,3.5.8,5.5Z"/>
  <path class="st0" d="M1078.2,305.5c-6.8-4.2-6.3-43.5-10.8-52.3-6.5-12.8-18.4-.4-23.2,7-10.3,16-13.2,33.8-12.2,52.7-27.7-2-22.3,43.3-44.5,45.9-5.9.7-26.7-.4-31.9-2.9-16.9-8.1,9.9-45.8,18-14.7l5.6,1.1c-5.2-15.6,12.2-31.9,7.8-45.2-3.4-10-11.2-8.2-6.5-24,1.2-4,8.6-16.7,13.4-14.1s7,37.8,27.2,20.1,5.2-47.6,9.5-54.3c3.8-5.8,17.2,0,22.6-14s1.3-40-5.6-52.9c-4.1-7.5-18-7.3-17.4-22.9s27.8-49.1,29.4-66.7c6.9,0,8.5,9.3,10,14.6,6.1,21,23.6,97.8,20.9,115.9s-5.6,11.2-5,18c1.5,16.2,21.9,21.2,15.2,43.4s-9.2,10.7-9.6,17.5,9.2,15.6,7.8,18.9c-3.2,4.6-15.8,11.9-20.8,8.8Z"/>
  <path class="st0" d="M523.1,584.2c-26.5,28-47.7,28.7-80.2,43.1s-20.6,12.7-23.8,12.3-3.3-5.7-5.9-6.7c-4.2-1.6-19.9-1.3-26.4-2.4-38.1-6.5-69.3-13.7-108.1-18s-90.1-20.8-133.6-23.6c-10.5-.7-33-1.5-41.3,4.5-15.7,11.3,7.6,28.5-9,41.2-5.9-18.2-40.2-48.8-38.6-66.7.7-7.8,7-8.5,13.8-8.2,23.6,1,58.8,12.4,84.4,16.2,58.7,8.8,119.2,11,177.1,22.1,6.1,11.1,24.4,16.5,35.1,9.8,3.9-2.5,3.7-7.4,8.8-7.9s37.9,4.4,41.9,5.6c5.9,1.8,4.6,4.6,7.4,9,8.3-10.9,20.9-14.4,31.8-21.1,6.5-4,16.3-13.4,22.6-15.8s13.2-.4,16-2.3,4.6-18.4,11.8-24.8,25.4-12.8,27.5-12.8c4.9,0,6,9.1,5.5,12.9s-9.6,26.7-10.4,28c-1.8,3-4.6,3.5-6.4,5.5Z"/>
  <path class="st0" d="M909.4,2120.5c1.8,1.7,7,11.4,3.7,13.8-7.6,2.6-13.4.9-20.7-1.4-28-8.8-43.4-21.7-67.2-35.1s-23-8.7-33.5-14c-14.6-7.3-33.6-30.2-44.4-43.3-6.6-8-14.9-24-20.8-29.5-8.2-7.6-23.7-10.8-29.6-22.7l6.6-17.2-3.9-2.1c6.5-34.5-30-34-54.5-30.2-1-14.8-5.9-30.6-3.7-45.2,6.9-6,49.1,20.3,58.8,23.9,8.5,3.1,26.8,4.7,32.2,9.8,9.4,8.9,6.9,53.6,22,69.3s20.3,11.3,27.5,18.2c6.8,6.6,11.3,18.2,18.2,25.7,8.2,8.9,21.2,15.4,30.9,23.9,17,14.8,40.6,38.4,60.6,49,4.6,2.5,15.6,5,17.7,7Z"/>
  <path class="st0" d="M1660.5,976c-12.5,3.6-25.9,3.2-38.9,2.2-42.5-3.5-87.7-15.2-129.8-18.2s-25.5,1-38.1-.2-42.2-5.8-25.5-17.8c18.4-13.2,42.9-10.1,63.6-16.8s14.4-8,20.3-8.9c12.1-1.9,28.9.6,41.9-.1,15.6-.9,23.4-2,40.2-1.7,20.6.4,66.3-2.6,76.4,20.5,4,9.3-8.1,30.9-10,41.2Z"/>
  <path class="st0" d="M710.1,929.3c8.2,8.3-5.3,13.7-11.9,15.5-9.1,2.4-42.1,5.8-52.4,6-14.5.3-53.7-4.8-65.2-.8s-4.3,4.9-6.7,6.2c-7.1,3.7-26.6,11.3-34.7,14.2-16.1,5.9-18.6-.8-31.4-4.2s-28.4-.6-34.8-9,.8-10.7,1.2-14.7c.3-3.5-5.3-9.8-1-15.5,9.1,4.3,10.1-5.8,16.4-10,4.2-2.8,10.5-3.2,13.7-6.4,6.4-6.3.4-13.4,16.4-14.7,13.9-1.2,19.8,6.4,31.1,7.3,8.1.7,15.4-2.2,23.8-1.9,20.1.6,40.9,4.3,60.4,7.2,17.8,2.7,39.2.5,55.6,8.3s18.5,11.4,19.5,12.4Z"/>
  <path class="st0" d="M226.1,733.1c-22.3,8.1-1.1,19.9,2.2,28.4,2.3,5.8.9,10.8,2.2,16.1s10.4,15.5,11.3,24.9c.7,7-3.5,13.4-4.3,19.6-2.5,19.9,17.5,34.4,2.5,55.7l-11.5-4.9c-8.5-17.8-19.7-34.3-28.7-51.8-8.2-15.9-14.9-30-17.4-48.2s-17.9-23.4-28-35.9l-46.7-81.2c-.6-2.5.2-3.5,2.7-2.7,8.6,2.6,19.6,17.9,29.1,16.4,5-.8,5.6-4.5,14.6-3.5,17.9,2,58.6,39.1,68.7,53.8s4.8,8,3.4,13.5Z"/>
  <path class="st0" d="M810.5,1024.6c6.6,6.6,11.3,11.4,15.6,20s5,6,.5,8.5c-11.3-2.9-22.8-.8-34.1-2.2-18-2.2-42.3-14.1-61.3-19.1-70.1-18.3-115-12-182.8,8.1-9.7,2.9-19.1,9-29.6,7.8-4.7-4.4,12.6-17.5,15.8-19.8,46.1-32.2,140.1-48.7,195.2-42.3,33.5,3.9,57,15.5,80.7,39Z"/>
  <path class="st0" d="M430.5,746.6c-.4-.5-9.3-5.9-10.7-6.7-8.7-4.7-21.9-5.7-27.2-15.7,17.2-7.5,35.7-8,52.8-15.7,19.9-9,36.9-25.8,52.3-40.9,6.6.3,3,8.4,6.3,11.9,6.2,6.6,16.9,1.1,14-8.3-2.4-7.7-13.6-5.3-11.9-9.8,5.5-14.7,42.7-31.6,58.3-30.4l-1.9-3.6c6.3.5,12.3-.8,18.3-2.8,6-1.9,10.4-7.3,14.4-9.3,6.5-3.1,13.5-2.9,20.1-7.4s9.4-14,12.9-21.8c5.5-.8,11.6.1,17-1.3s19.6-12.8,24.2-5.1c7,11.6-14.9,9.5-21.5,11.5-12.7,3.8-9,16.6-13.4,25-4.4,8.4-38.4,27.1-48.1,34.1-11.3,8.2-48,40.5-58.5,42s-10.8-2.6-15.7-2.5c-9.4.1-50.3,33.2-56.7,41.7-22,29.5,21.2,27,24.5,39.7,3.2,12.3-36.2,28.3-42.9,22.6-10-8.4,1-37.9-6.7-47.2Z"/>
  <path class="st0" d="M417.8,1726.8c-3.8,2.6-8.7,2.7-11.1-1.9s-6.2-17.9-6.6-20.6c-1.1-7.4,1.8-12.4,1.7-18.2-.3-21.7-10.3-50.1-19.8-69.7-3.5-7.3-18.7-33.9-24.2-38-9-6.8-18.8,1.9-21.4,11.4-6.4,23.4-7.1,23.1-22.2,40.3-6.2,7.1-3.9,13.4-11.1,4.5,2.3-21.5.2-41,9.4-61.5,5.8-13,44.4-76.7,53.7-83.3,3.9-2.7,8-6,12-1.1s5.9,47.4,7.4,58.3c4.1,27.9,11.8,56.7,15.7,84.8,6.6,17.9,33.5,27.3,37,52.6,2.2,16-18.9,25.2-20.5,42.4Z"/>
  <path class="st0" d="M1122.4,2111.5c-6.8,6.8-6.3,20.9-19.5,20.7-18.4-.3-13.1-22.8-19.4-32.8s-9.4-5.7-12.9-9.5c-6-6.5-19.9-25-5.5-27.6,14.3-2.6,12.6,21.4,21.1,21.3,11.1-6.7,11.3-25.6,28.2-20.3.9-.6,3.6-16,3-18.3-2.2-8-14.7-8.1-15.7-9.1s1.3-3.4,1-4.5c-.7-2.5-3.5-3.5-4.2-6-1.2-4.5-6.2-29-5.7-32s2-4.8,3.3-6c7.4-7.1,45.6-10,55.6-4.3,11.2,6.4,5.6,46.8,10.2,59.2,1.6,17.8-2.4,34.6-4.5,52.1-9.3,7.7-26.8,8.7-35.1,17Z"/>
  <path class="st0" d="M580.9,1933.7c-5.9,2.2-10.7-4.7-12.4-5.3-7.2-2.7-26.1-9.2-28.7-.1-2.6-7.2-6-3.2-11-7.2-6.8-5.5-16.1-28.9-22.1-38.3-5.4-8.5-14.7-17.3-18.7-25.2-5.8-11.5-7.5-66.3-3.1-79.1s6.9-13.1,14.7-7.4c4.3,3.1,18.1,30.8,23.8,38.3s13.1,16.1,17.2,19.4c10.3,8.3,26.7,6.7,27.3,23.9s-2.3,39.8,6,63.4c2.3,6.4,7.9,10.7,6.9,17.8ZM523.6,1833.4c-13,7.7,8.6,24,15.3,19.1,6.8-4.9-3.5-23-15.3-19.1Z"/>
  <path class="st0" d="M1609.8,1040.3c-16.3,3.3-28.9-5.5-43.4-8.6-51.5-11.1-108.6-4.3-159.5,7.6s-57.7,25.3-57.7.1c0-17.9,24-31.1,38.8-35.4,55.6-16.3,127.6-12.8,181.6,8.1,12.5,4.8,39.9,13.7,40.2,28.3Z"/>
  <path class="st0" d="M282.6,1160.5l1.4-3.4c7.5,1.9,19.5,1.7,27.4,1.1,2-.1,7-7.1,6.3.8-9.8.5-14.8,9.2-21.5,14.6-28.1,23.2-46.8,35-59.4,71.7-3.5,10.1-10.1,46.4-14,51.4-1.1,1.4-9.3,3.5-12.8,5.9-13.8,9.4-19.4,21.2-23,37.3s0,32,2.8,47.6h-5.5c3.2-14.9-18.9-25-22.4-33.3s-3.4-17.3-3.3-20.5c.4-10,6.7-9.6,11.1-14.7,10.9-12.5,6.1-28.4,9.4-43.6,6.3-29,40.3-47.4,54.6-73.3s12.5-40.8,17.4-46.6c8-9.5,22.4,4,31.6,5Z"/>
  <path class="st0" d="M372.5,994.6c-5.5-.7-5.4-7.7-6.1-8.7s-2.1-.7-2.9-1.8-1.1-4.3-2.3-5.5c-6.6-6.6-22.6,1.4-30,2.6-4.6.7-9.5-1.2-16,.7-5.8,1.7-15.7,8.5-20.3,8.3s-8.9-5.2-13.2-6.1c-22.7-4.8-22,14.5-35.3,24.1s-20,7.3-29.1,13c-3.3,12.2-12.6,25.7-16,37-3,10.1-.8,24.7-4.6,32-2.3,4.5-8.5,4.4-10.2,11.8-3.9,17.1,8.1,23.5,6.6,32-11.4,17.4-18.5,39.9-28.9,57.1s-3.3,7-7.3,6.3c3.2-27.7,4.5-55.8,8.8-83.3,1-6.2,2.4-20.3,4.1-25s3.7-1.2,3.6-2.2-2.3-2.6-2.6-4.5c-1.5-9.7,8.3-15.4,10.6-26s-4-24.3,3.5-30.3c2.4-1.9,5.9-1.3,8-3,10.6-8.3,14-22.6,27.6-26.3,27.8-7.7,34.8-20.1,56.7-29.2s46.3-15.6,58.2-16.7c19.5-1.8,21.2,3.9,36.3,12.6,5.9,3.4,13.5,1.8,11.6,13.2s-9.1,11.2-10.7,17.8Z"/>
  <path class="st0" d="M541.7,1973.1c.6-.4.7-2.7,2-2.9,4.6-1.6,21.3,12.4,20.7,15.6-4.3,2.2-8.7,2.3-12.7,6-6.2,5.8-5.6,15.6-13.4,12.9-6.6-2.3-21.9-17.6-29.2-22.1-26.4-18.3-60.5-32-74.5-62.4-19.9-43.2-32.4-76.5-56.3-119.1s-29.9-48.9-31.1-55c-2.1-11.3,21.1-6.7,26.4-4.2l7.1,20.1c40.9-19,30.1,12,32,37.5,4.5,60,46.2,129.7,89.7,169.7,14.9,13.7,22.1,15.2,39.3,3.9Z"/>
  <path class="st0" d="M904.4,2041.5l3.6-1.8,2.8,12.8c-16.6-7.4-31.2-23.2-43.9-36.5s-8.8-12.3-13.6-17.4c-8.7-9.3-39.7-31.3-33.5-44.2l3.6-3.9c8-2.7,61,17.4,73.7,20.7,30.6,8.1,58.7,10.9,90.4,12,16.2.5,39.8-3.9,54.1.7,11.9,3.9,2.2,23.1-5.7,27.3-14.6,7.8-23.6-3.1-35.9-7.7-17.1-6.2-64.7-9-81.9-4.2-20.4,5.8-18.4,25.4-13.6,42.1Z"/>
  <path class="st0" d="M288.5,1438.6c-3.9,29.9-24.3,53.9-34.3,81.7-9.7,26.8-12.2,58.4-26,83.7-1.9,1.1-4,1.2-6.1.6-18-5.3-26-86-33.8-103.5-2-4.3,7.1-23.1,10.6-20.5,4.1,18.3,19.3,28.2,36.2,17.1,6.5-9.2,14.5-17.4,20.9-26.8s13.2-34.5,32.5-32.4Z"/>
  <path class="st0" d="M1302,1985.7c.7.5.7,2.5,2.1,2.8,12.2,2.6,30.4-14,37.1,2.7-.9,4.3-13.3,2.3-17.2,2.9-17.7,2.7-13.4,14.3-19.8,16.9-7.7,3.2-17.4-3.5-26.2,4.7-4.2,4-5.1,11.4-8.1,15.2-2.9,3.9-12,6.9-12.9,13.3-1.9,13.3,13.6,19.8,14.7,27.4.2,1.7-3.5,20.4-4.3,22.2-2.3,5.4-13.5,12.6-16.9,20.5-4.9,11.6,1.1,20.1-16.3,22-13,1.4-29.6-1.1-24.8-17.4,5.9-20.4,23.7-20,30.9-36.7,5.1-11.7,2.3-17.7,4.7-28.2,1.6-7.2,8.1-11.2,9.7-15.8s6.3-28.5,5.6-32c-1.8-8.4-12-8.9-17.8-13.3-15-11.4-5.6-21.6,9-25.6s31.2-5.3,35.7-4.5c7.9,1.4,4.4,15.4,14.8,22.8ZM1282.2,1979.8c-8.9-7.1-16.1,10.1-4.2,8.8,4.7-.5,8-5.7,4.2-8.8Z"/>
  <path class="st0" d="M829.4,1783.9l-8.2-1.9c-7-15.8-19.4-28.6-27.5-43.7-3.4-6.4-3.9-14-8.4-20.8s-12.8-11.4-15.1-17.8c-2-5.3-.8-10.4-3.9-16.2s-12.5-13.5-16.1-22.2c-10.1-24-17.6-56.1-27.2-80.6-3.5-8.8-15.3-16.7-17.4-26.6-1.6-7.4,2.1-24.4,12.4-19.6,5.3,2.5,31,59.6,36.2,69.8,12.6,24.6,28.1,49,38.3,75s8.5,32.9,14.7,47.4c8.2,19.3,25,33.3,22.3,57.2Z"/>
  <path class="st0" d="M1375.8,1953.9c2.2,1.8,2.5,30.7,1.8,35.4-1.4,8.7-12.8,27.6-13.6,36.6s2.2,25.6,3,30.9,2,10.3,3.4,12.6c5.4,8.8,41.6,18.4,52.2,17.7,7.6-.5,19.4-7.7,23.8,1.9s-11.3,13-18.7,15.9c-26.2,10.3-43.6,12.8-70.6,17.1s-24,10.3-37.6,15.4c-5,1.9-10.2-1.5-11.9,4.2-9.1-2.3-23.8,3.6-26.6-8.8,5.8-.2,6.7-8.1,11-10.1,7.1-3.3,14.1,1,20.9.9,9.3,0,10.3-5.3,16.2-8.5,12.4-6.8,17.4-10.2,29.5-21.9s7.5-2.5,9.5-9.8c4.9-17.8-16.1-14.9-18.5-25.4s5.9-15.2,6.3-21.5-2.4-12.5-1.7-19.8c.4-4.6,4.3-11.5,3.8-14.4-.3-2-8.4-2.2-7.5-9.3,0-.5,5.2-2.5,6.5-8.3,3-13-1.7-31.5,19.1-31Z"/>
  <path class="st0" d="M684.5,569.4c-4.6-4.8-13-2.9-15.5-14.7s7.7-13.7,6.9-21.3-11.6-7.8-13.5-12.4c-2.8-6.6-.5-16.2-1.2-23.3,3.4-3.6,30.3,16.4,34.9,19,15.3,8.4,34.7,19.1,50.3,26.5,8.9,4.2,20.5,3.5,26,14.2,12.1,23.5-21.5,18.6-33.2,21.2-5.2,1.1-13,8.9-19.6,11.5-8,3.1-30.9,8.5-35.7-.9-3.3-6.4,7.2-12.7.5-19.7Z"/>
  <path class="st0" d="M1874.2,1642.7c-3.3,2.6-8.2,2.7-12.2,2.3.6-13.4-12-21.3-16.1-30.5-3.1-7-1.8-13.1-7-20.5-12.2-17.5-22.6-2.9-28.2-6.4-3-4.2-9.4-15.2-4.6-19.3,7.3-6.3,15.6,3.7,22.4,5.1,14.5,3,20.6-6.3,33-8.2s20.8.7,30.4-.6c5.6-.8,10.6-4.9,14.9-5.3,8.6-.9,19.8,7.1,30,2.7,3.1,1.9-.7,11.8-1.8,14.7-8.1,22.5-26.1,26.5-41.3,41s-14.9,21.4-19.6,25.1Z"/>
  <path class="st0" d="M1396.4,821.5c11-10.6,54.3-7,69.9-7.8,6.9-.3,14.7-3.3,21.9-3.7,15.4-.9,30.4,3.3,45.8,2,8.9-.7,25.7-7.7,32.8-1.9.8.7,9.1,17.8,9.6,19.6,6,21.7-18.1,13.5-29.4,13.9s-12.1,3.5-18.5,3.1-12-5.8-20.1-5.8c-32,0-67.2,13-99-1.4-5.3-2.4-19.1-12.2-12.9-18.1Z"/>
  <path class="st0" d="M1779,1638.9c-.8,1.2-3.6,2.1-4.9,5-5.1,11.4,6.5,12.5,9,22.5l-2.8,4c-7.2,2.2-16.1-5.5-23.3-5.2s-13.9,8.1-21.8,7.1c-8.7-2.9-1.4-42.1.8-50,5.4-20,21.9-44.3,25-64.5,1.3-8.5-3.4-36,8.7-35.1,11.5.8,2.3,23.1,5.3,32.9,2.7,8.7,18.5,11.8,18.5,22.7,0,9-14.3,27-15.3,33.2-1.7,10.9,10.5,12.3.8,27.3Z"/>
  <path class="st0" d="M1482.4,1956.9c1.3,1.6,17,7.6,5.6,11.2-4.9,1.5-13.7-.2-19.7.4s-15.9,8-20.2-.2c-6.8-13,4.8-22.2,6.2-32.1,1.8-12.3-7.7-20.8,5.7-30.8,10.4-7.8,23.7-5.3,34.7-11s11.4-12.2,20.5-16c6-2.5,20.9-5.8,26.1-1.6,5,3.9,4.6,36.6.8,43.2s-13.6,11.5-17.1,11.3c-12.7-.5-13-25.8-34.1-16.9-11.3,4.8-15.6,34.3-8.6,42.4Z"/>
  <path class="st0" d="M1747.8,723.3c8.4,6.4,13.4,3.9,20.5,7s9.2,9.1,11,10.4c7,5.5,26.1,18.7,30.5,25.6,11.5,18.1-12.9,11.5-23.5,12.9s-18.5,8.9-28.5,4.4c-4.6-2.1-5-9.6-13.3-7.9s-6.5,7.8-15.1,1.5c-14-10.3-5.3-19.9-5-32,.2-6.2-3.3-26.3-8.2-30.2s-18.8-1.7-19.8-3.5l1-16.5c6.7,4.2,14.8,5,21.8,8.3,10.1,4.9,19.7,13.2,28.5,19.9Z"/>
  <path class="st0" d="M629.8,1996.2c2.7,1.6,6.5,12.9,8.7,16,30.3,42.2,88.8,86.1,137.7,103.5l25.8,17.1c-4.7,1.9-8.2.3-12.7-.9-27-7-93.5-29.7-113.2-47.6s-8.5-14.9-13.8-20.9c-7-8-18.4-16.3-26.6-24.6-6.8-6.9-12.9-17.7-20.2-23.6-9.2-7.4-24-13.7-34.5-19.4.5-2.1,1.2-3.2,3.7-2.7,4.1.9,9.2,3.5,14.2,3.9,7.5.7,27.2-3.1,31.1-.8Z"/>
  <path class="st0" d="M673.6,1634.5c3.1,12.3,8.1,24.1,12.4,36,5.9,16.1,11.3,26.5,18.1,42.2,13.5,30.9,20,64.7,34.4,95.3l1.2,16.1c-3.7.5-6-3.1-8.2-5.4-24.1-26-44.9-103.4-53.3-139-3.6-15.6-11.6-30.3-9.7-47.4l5,2.3Z"/>
  <path class="st0" d="M627.6,511.5c-7.6,9.3-26.9.5-38.4.7s-21.2,13-37.6,7.3c1.8-7.4,12.6-10.9,15.4-14.7,4-5.5,3.3-17.5,4.5-19.1,2.1-2.8,21.3-11.7,24.9-11.6s10.3,6.4,15.4,8.1c11.4,3.7,25.5-.2,34.8,9.1.9,3.9-12.1,9.7-15.7,13.6s-2,4.9-3.4,6.6Z"/>
  <path class="st0" d="M1164.4,1634.6c1.8-1.3,36-14.3,39.2-14.7,7.3-1.1,23.1-2.3,30.6-2.4,7.5-.1,15,3.9,15.6,12.2.8,12.3-13.6.9-19.6,3.9-8.7,4-3.7,18.2-25.2,20.6-5.7.6-50.4,1.2-48.3-9.8,2.9-1.9,5.9-8.4,7.7-9.7Z"/>
  <path class="st0" d="M1509.2,1988.7c-3,6.4,5.1,10.8,4.8,17.2-.1,2.7-6.3,12.4-8.4,14.6s-40.1,26.9-43.1,28.1-7,3.6-10.9.4c-3.4-2.8-2.8-8-2.6-12,.4-6,2.8-23.2,4-28.9,4.6-20.9,16.8,5.5,19.7,6.9,22.5,11,8.8-42.5,36.5-26.3Z"/>
  <path class="st0" d="M1779.5,1701.9c1.4.9,5.6,29.2,5.4,33s-5.2,26.3-6.5,30.2-5.1,9.1-10.3,9.5c-6-1.4-14.7-49.1-19-57.8-3.5-7.1-25.4-15.2-10.5-24.2,12.9,18.5,22.4,9.9,40.9,9.4Z"/>
  <path class="st0" d="M343.3,1343.6c1.2,8,5.1,15.5,6.9,23.3,2.1,9.1,6.2,27.8,7.3,36.6,3.3,26.4-17.4,3.5-33,8.1s-30.6,36.5-30.7,17c0-9.7,28.3-32.7,34.5-44.2s6.9-24.5,11.4-36.1c.7-1.9.7-4.4,3.5-4.7Z"/>
  <path class="st0" d="M359.7,689.5c7.5,7.5-30.8,45.8-33.8,54.9-3.9,2.8-7.9,5-12.8,5.5s-21.3-.7-22-1.8c-9.1-35.3,18.6-24.6,34.6-36.9,10.2-7.8,14.3-26.4,34.1-21.7Z"/>
  <path class="st0" d="M922.4,1155.6c-.4,3.9,2.2,9.2,1.2,12.7s-8.1,11.9-8.7,12.3c-2.9,1.6-24.6,2.6-28.8,1.2s-29-15.1-29.4-20.1c-1.4-14.9,39.3-13,48.4-11.6,6.4.9,10.6,5.7,17.3,5.5Z"/>
  <path class="st0" d="M892.1,383.8c1,1.5,5.1,2.1,6,5.9,2.3,9.9-14.7,7.3-19.3,8.2-7.1,1.3-13.5,7.2-19,6.6-10.3-1.1-22.1-18.1-28.5-25.6,5.6-.9,9.9-6.9,15.6-7.3,5.6-.4,12.4,4.7,17.8,3.3s10.1-10.2,16.9-10,7.5,13.9,10.6,18.8Z"/>
  <path class="st0" d="M1243.9,1086.4c1,.6,5.5,9.6,9.5,11.4s7.7,0,10.9,1.8c-5.2,8.1-12.8,14.1-17.9,22.3s-10.2,27-14.8,32.2-5.2,2.5-8.3,2.4c-16.9-6.6.9-34,4.1-44.5,2.1-6.8.8-34.5,16.6-25.6Z"/>
  <path class="st0" d="M353.7,827.1c1.2,1.4,5.1,9.6,4.2,10.4-11.3.5-21.8,2.7-32.3,7s-14.9,11.2-24.2,9.3c-7.4-16.9-3-30,14-37.8s8,0,13.9,1.7,19.4,3.8,24.4,9.3Z"/>
  <path class="st0" d="M343,1258c4.1,2.6.7,40.1-8,43.6-4.7-13-40,2.4-44.8-1.8.1-3.6,2.6-8,4.7-10.8s33.6-28.8,37.4-30.2,8.5-2.1,10.6-.7Z"/>
  <path class="st0" d="M1244.4,1816.5c-1.7-20.6,23.7-14.4,36.9-16.6,10-1.7,14.7-10,27-6,8.2,2.6,5.2,17.5-.2,21.9-7.3,6.1-15.4,1-22.6,1.2-13.2.3-26.9,8.6-41.2-.4Z"/>
  <path class="st0" d="M1252.9,1152.2c7.1-1.5,34.8-1.6,33.1,9.2-.1.8-6.4,14.6-6.9,15.2-4.6,5-21.8,7.5-28.4,6.2-11.8-2.2-18.2-26.4,2.2-30.6Z"/>
  <path class="st0" d="M581.3,1109.3c-3.9-3.8-2.2-18.1.6-23.2s16.9-17.1,24.6-14c6,4.4,2.1,36.2-2.8,41.3s-20.4-2.1-22.5-4.1Z"/>
  <path class="st0" d="M976.9,2105.7c9.5-3.2,36.7,19.2,35.3,26.2s-43.3.9-43.5-10.5,4.6-14.5,8.1-15.7Z"/>
  <path class="st0" d="M918.2,1105.1c3.2,2.3,5.3,6.9,8,9.3,6.3,5.5,30.7,20.5,20.2,31-24.6,12.2-20.7-33.6-40.2-42.1,5.4-4.3,7.7-1.5,12,1.8Z"/>
  <path class="st0" d="M200.7,1464.1c-3.7-2.2-6.2-9.4-7.6-13.4s-4.1-12.4-4.7-17.2c-1.3-10.3,1.7-18.5-.5-27.8,3.7-4.1,13.1,18.2,13.7,20.1,4.3,13.1,6.5,26-.9,38.3Z"/>
  <path class="st0" d="M273.8,760.7c-1.9,2.6-34.2,4.1-37.2,1.8-8.2-6.5.5-9.6.6-10.3.8-3.5-.4-7.9,0-11.6,2.3-2.3,30,12.3,33.5,14.9s3.7,1.9,3,5.2Z"/>
  <path class="st0" d="M239.5,879.8c4.7-4.5,21.9-.9,21.2,5.7-3.7,10.6-22.6,32-30.5,15.3,2.5-5.9,5.9-11.2,8.9-16.8s.1-4.1.3-4.3Z"/>
  <path class="st0" d="M610.6,818.7c-.9-.7-3.9-5.2-3.4-6.8,5.1-11.3,44.8-3.9,44.9.9-8.6,5.9-33.2,12.4-41.5,5.8Z"/>
  <path class="st0" d="M849.1,1117.3c7.8-1,21.3,7.2,14.1,14.2-6.2,6.1-22.5,5.2-24.7-4.6l.9-4.5c1.2-2.4,7-4.8,9.7-5.1Z"/>
  <path class="st0" d="M648.5,1511.7l9.1,54.8c-6,6.9-10.7-26.1-11.1-28.1s-2.9-4.8-3.4-7.6,0-25.1,5.4-19.1Z"/>
  <path class="st0" d="M1092.6,2215.1c-1,5.2-1.6,10.6-3.6,15.6s-8,17.4-11,15.5c1.3-8.8-8.8-4.8-4.5-18.1,1.4-4.5,15.1-15.2,19.1-12.9Z"/>
  <path class="st0" d="M1759.6,1802.2c2.6,2-1.6,36.4-12.8,32.9-4.3-12.9-1.2-28,12.8-32.9Z"/>
  <path class="st0" d="M739.8,810.1l-15.7,5.3-33.4,1.7-2.2-5.9c8.8-5.5,19.2-1,28.4-.9,7.4,0,14.7-4.5,22.8-.1Z"/>
  <path class="st0" d="M1277.2,1087.8c-1.5-7.9,22.8-27.4,25.6-17.3,2.3,8.1-18.8,17.4-25.6,17.3Z"/>
  <path class="st0" d="M266.1,1799c.3.1,2,3.6,4.1,4-3.1,8.7-9.5,5.2-16.4,8.3.4-6.3,4.3-15.3,12.3-12.2Z"/>
  <path class="st0" d="M326.8,1155.4c-.9-6.7,8.8-2.1,10.1-9.2l10,6.5-2.9,4.5-17.2-1.8Z"/>
  <path class="st0" d="M1120,2174.9l-7.3,7.3,3.6,1.9c-1,5.8-6.2,6.8-10.9,9-.6-.6,6.5-14.8,7.2-15.6,2.2-2.6,4.1-3,7.4-2.6Z"/>
  <path class="st0" d="M1312.1,1131.5l-2-8.9c15.8-2.7,17.2,9.1,2,8.9Z"/>
  <path class="st0" d="M1151,925.2l-18.3-16.4c7.9.7,18.3,7.9,18.3,16.4Z"/>
  <path class="st0" d="M1804.4,1230.3c5.9-1.6,10.3,8.1,5.4,9.1-4.9,1-11.6-5.5-5.4-9.1Z"/>
  <path class="st0" d="M831.2,2143.8c-5.2.3-12.1.1-14.6-5.4,4.7,0,12.3.5,14.6,5.4Z"/>
  <path class="st0" d="M929.9,322.3v7.3s-9.1,0-9.1,0c-.4-4.9,4.7-8,9.1-7.3Z"/>
  <path class="st0" d="M414.5,885h-5.5c-4-9.6,6.4-10,5.5,0Z"/>
  <path class="st0" d="M1713.9,638.3c.2,1.9-.5,4.2,0,6s4.4,0,3.7,3.1c-8.3,1.8-4-3.8-7.3-8.2l3.6-.9Z"/>
  <path class="st0" d="M1056,349.7c2.8,2.8-5.4,7.8-5.4,2.7s4.4-3.8,5.4-2.7Z"/>
  <path d="M1171.7,425.9c-11.4-14.1,13.3-23.9,24.3-16,5.6,15.4-14.3,28.3-24.3,16Z"/>
  <path d="M1643.6,648.1c10.4,0,5.5,16.6-3.4,10.1-5.8-4.2-1.9-10.1,3.4-10.1Z"/>
  <path d="M962.6,461.4c6.3,10.1-11.6,15.6-14.2,5.8-2-7.7,12-9.3,14.2-5.8Z"/>
  <path d="M1884.1,907.1c12.9-2.1,15.6,11.3,21,19.8,3.7,6,9.5,5.4,8.1,15.5-.6,3.9-3.7,6.5-3.6,10.9.3,7.2,11.1,25.7-5,28.2-13.3,2.1-13.8-15.9-17.2-22.3-2.6-4.9-9-6.9-12.6-11.2-12.5-14.8,2-15.8,6-25.2s1-10.9,3.4-15.8Z"/>
  <path d="M1809,901.4c-1.3-5.5,2.9-7.4,7.3-9.1l-.8,7.4c-1.5,2.4-3.8,1.9-6.4,1.8Z"/>
  <path d="M1859.7,1086.5c4.9,4.4,2.6,27.4-.6,32.3s-13.3,5.7-18.5,8.1-2.2,12.3-13.2,8.2c-3.8-6.8,1-9.7,1.7-15.2.9-7.4-3.7-18.4-.3-23.6,8.3-1.8,23.3-16.6,30.7-9.9Z"/>
  <path d="M1644.9,1816.3c-7.3-6.9,9.6-22,15.2-8.6,2.8,6.7-9.1,14.4-15.2,8.6Z"/>
  <path d="M523.6,1833.4c11.8-4,22.2,14.2,15.3,19.1-6.8,4.9-28.3-11.4-15.3-19.1Z"/>
  <path d="M1282.2,1979.8c3.8,3.1.5,8.2-4.2,8.8-11.9,1.3-4.7-15.9,4.2-8.8Z"/>
</svg>